<svg id="Layer_1" data-name="Layer 1" xmlns="http://www.w3.org/2000/svg" xmlns:xlink="http://www.w3.org/1999/xlink" viewBox="0 0 652.23 162.77"><defs><style>.cls-1{fill:#f9a629;}.cls-2,.cls-5{fill:#494949;}.cls-3,.cls-4,.cls-5,.cls-6,.cls-7,.cls-8{fill-rule:evenodd;}.cls-3{fill:url(#radial-gradient);}.cls-4{fill:#dbdcdc;}.cls-6{fill:url(#linear-gradient);}.cls-7{fill:url(#radial-gradient-2);}.cls-8{fill:url(#linear-gradient-2);}</style><radialGradient id="radial-gradient" cx="135.77" cy="180.49" r="123.21" gradientTransform="matrix(1, 0, 0, -1, 0, 212.28)" gradientUnits="userSpaceOnUse"><stop offset="0" stop-color="#fff"/><stop offset="0.5" stop-color="#f7b525"/><stop offset="1" stop-color="#c71b23"/></radialGradient><linearGradient id="linear-gradient" x1="134.07" y1="40.69" x2="134.07" y2="84.87" gradientTransform="matrix(1, 0, 0, -1, 0, 212.28)" gradientUnits="userSpaceOnUse"><stop offset="0" stop-color="#fff"/><stop offset="1" stop-color="#fff" stop-opacity="0"/></linearGradient><radialGradient id="radial-gradient-2" cx="143.52" cy="262.81" r="213.46" xlink:href="#radial-gradient"/><linearGradient id="linear-gradient-2" x1="141.51" y1="181.62" x2="141.51" y2="156.11" xlink:href="#linear-gradient"/></defs><path d="M202,59.1h12.48V128H202Z" transform="translate(-73.59 -26.51)"/><path d="M260.08,78.3h12.49V128H260.08v-5.28a24.22,24.22,0,0,1-7.36,5,20.36,20.36,0,0,1-8,1.52,22.09,22.09,0,0,1-16.64-7.44c-4.72-5-7-11.2-7-18.56,0-7.69,2.24-13.93,6.8-18.89A21.71,21.71,0,0,1,244.32,77a21.28,21.28,0,0,1,8.4,1.68,23,23,0,0,1,7.28,5V78.3ZM247,88.54a12.64,12.64,0,0,0-9.6,4.08,14.74,14.74,0,0,0-3.84,10.49,14.5,14.5,0,0,0,3.92,10.56,13.43,13.43,0,0,0,19.36.08A15,15,0,0,0,260.72,103a14.48,14.48,0,0,0-3.84-10.49,13.39,13.39,0,0,0-9.84-4Z" transform="translate(-73.59 -26.51)"/><path d="M280.73,78.3h38.08l-22.32,39.13h21V128H277.37l22.4-39.13h-19Z" transform="translate(-73.59 -26.51)"/><path d="M318,78.3h12.72l12.88,31.21L357.86,78.3h12.8l-31.13,67.85h-12.8L337,124.23,318,78.3Z" transform="translate(-73.59 -26.51)"/><path class="cls-1" d="M405.86,85.26l-7.68,7.68c-3.12-3.12-6-4.64-8.56-4.64a5.52,5.52,0,0,0-3.28.88,2.67,2.67,0,0,0-1.2,2.24,2.82,2.82,0,0,0,.72,1.84,13.39,13.39,0,0,0,3.76,2.32l4.56,2.33c4.8,2.4,8.08,4.8,9.92,7.28a14.61,14.61,0,0,1,2.72,8.64,14.23,14.23,0,0,1-4.88,11c-3.28,3-7.6,4.4-13,4.4a20.63,20.63,0,0,1-17.36-8.48l7.68-8.32a18.3,18.3,0,0,0,5.12,4.16,11.6,11.6,0,0,0,5.2,1.6,6.27,6.27,0,0,0,4-1.2,3.34,3.34,0,0,0,1.52-2.72c0-1.92-1.84-3.76-5.44-5.6l-4.24-2.08c-8-4.08-12.08-9.12-12.08-15.21a13.23,13.23,0,0,1,4.56-10.08,16.38,16.38,0,0,1,11.6-4.16,20.13,20.13,0,0,1,9.12,2.16,17.35,17.35,0,0,1,7.28,5.92Z" transform="translate(-73.59 -26.51)"/><path class="cls-1" d="M414.34,59.1h12.4V83.34a27.86,27.86,0,0,1,7.36-4.72,19.3,19.3,0,0,1,7.53-1.6,16.71,16.71,0,0,1,12.48,5.12c2.88,3,4.32,7.28,4.32,13V128H446.11V106.23c0-5.76-.24-9.69-.8-11.69a8.42,8.42,0,0,0-2.8-4.56,7.73,7.73,0,0,0-4.89-1.52,9,9,0,0,0-6.48,2.48,13.09,13.09,0,0,0-3.76,6.89c-.4,1.52-.56,4.88-.56,10.24V128h-12.4V59.1Z" transform="translate(-73.59 -26.51)"/><path class="cls-1" d="M491.39,77a26.3,26.3,0,0,1,13.2,3.52,25.16,25.16,0,0,1,9.68,9.52,25.47,25.47,0,0,1,3.44,13,26,26,0,0,1-3.52,13.12,25.51,25.51,0,0,1-9.52,9.6,26.1,26.1,0,0,1-13.28,3.44,25.81,25.81,0,0,1-25.76-26.08A26,26,0,0,1,491.39,77Zm.24,11.76A12.81,12.81,0,0,0,482,92.86a14.49,14.49,0,0,0-3.84,10.33A14.46,14.46,0,0,0,482,113.67a13.71,13.71,0,0,0,19.44-.08,14.64,14.64,0,0,0,3.92-10.48,14.42,14.42,0,0,0-3.84-10.41,13.64,13.64,0,0,0-9.84-3.92Z" transform="translate(-73.59 -26.51)"/><path class="cls-1" d="M538,78.3v5.52a23.88,23.88,0,0,1,7.28-5,21.28,21.28,0,0,1,8.4-1.68,21.87,21.87,0,0,1,16.56,7.36c4.56,4.88,6.8,11.2,6.8,18.89,0,7.36-2.32,13.6-7,18.56s-10.24,7.44-16.64,7.44a20.36,20.36,0,0,1-8-1.52,25.22,25.22,0,0,1-7.36-5v23.44h-12.4V78.3Zm13.12,10.24a13.09,13.09,0,0,0-9.76,4A14.53,14.53,0,0,0,537.4,103c0,4.4,1.28,8,3.92,10.72a12.86,12.86,0,0,0,9.76,4.08,12.43,12.43,0,0,0,9.6-4.16,15.11,15.11,0,0,0,3.92-10.56,14.74,14.74,0,0,0-3.84-10.49,12.69,12.69,0,0,0-9.68-4.08Z" transform="translate(-73.59 -26.51)"/><path class="cls-1" d="M597.4,78.3v5.52a23.88,23.88,0,0,1,7.28-5,21.3,21.3,0,0,1,8.41-1.68,21.87,21.87,0,0,1,16.56,7.36c4.56,4.88,6.8,11.2,6.8,18.89,0,7.36-2.32,13.6-7,18.56s-10.24,7.44-16.64,7.44a20.37,20.37,0,0,1-8-1.52,25.22,25.22,0,0,1-7.36-5v23.44H585V78.3Zm13.12,10.24a13.09,13.09,0,0,0-9.76,4A14.53,14.53,0,0,0,596.84,103c0,4.4,1.28,8,3.92,10.72a12.86,12.86,0,0,0,9.76,4.08,12.44,12.44,0,0,0,9.61-4.16,15.11,15.11,0,0,0,3.92-10.56,14.74,14.74,0,0,0-3.84-10.49,12.69,12.69,0,0,0-9.69-4.08Z" transform="translate(-73.59 -26.51)"/><path class="cls-1" d="M694.21,106.79H654.13a13.35,13.35,0,0,0,4.64,8.4,14.43,14.43,0,0,0,9.6,3.12,16.55,16.55,0,0,0,12-4.88l10.48,5a25,25,0,0,1-9.44,8.24,29.86,29.86,0,0,1-13,2.64c-7.76,0-14.16-2.48-19-7.36A25.08,25.08,0,0,1,642,103.43a26,26,0,0,1,7.36-18.89A24.55,24.55,0,0,1,667.73,77c7.84,0,14.16,2.48,19.12,7.52s7.36,11.6,7.36,19.85v2.4Zm-12.48-9.85a12.14,12.14,0,0,0-4.88-6.72,13.82,13.82,0,0,0-8.4-2.64,14.5,14.5,0,0,0-9.12,3c-1.68,1.2-3.2,3.36-4.56,6.4Z" transform="translate(-73.59 -26.51)"/><path class="cls-1" d="M699.1,78.3h10.72v6.24a13,13,0,0,1,4.64-5.6,11,11,0,0,1,11.36-.64L721.9,89a8.65,8.65,0,0,0-3.6-1.12c-1.92,0-3.52,1.2-4.88,3.6s-2,7-2,14l.08,2.4V128H699.1Z" transform="translate(-73.59 -26.51)"/><path class="cls-2" d="M270.17,176.07H257.12a4.23,4.23,0,0,0,1.52,2.72,4.88,4.88,0,0,0,3.12,1,5.61,5.61,0,0,0,3.93-1.6l3.44,1.6a7.92,7.92,0,0,1-3,2.64,9.84,9.84,0,0,1-4.25.88,8.26,8.26,0,0,1-6.16-2.4,8.14,8.14,0,0,1-2.4-6,8.51,8.51,0,0,1,2.4-6.16,8.8,8.8,0,0,1,12.25,0,8.76,8.76,0,0,1,2.4,6.48l-.16.8Zm-4.08-3.2a3.85,3.85,0,0,0-1.61-2.16,4.6,4.6,0,0,0-2.72-.88,4.69,4.69,0,0,0-3,1,5.6,5.6,0,0,0-1.52,2.08Z" transform="translate(-73.59 -26.51)"/><path class="cls-2" d="M271.69,166.79h4.16l4.08,9.52,4.08-9.52h4.08L281.21,183h-2.64l-6.88-16.16Z" transform="translate(-73.59 -26.51)"/><path class="cls-2" d="M306.65,176.07h-13a4.23,4.23,0,0,0,1.52,2.72,4.88,4.88,0,0,0,3.12,1,5.57,5.57,0,0,0,3.92-1.6l3.44,1.6a7.92,7.92,0,0,1-3,2.64,9.76,9.76,0,0,1-4.24.88,8.26,8.26,0,0,1-6.16-2.4,8.14,8.14,0,0,1-2.4-6,8.51,8.51,0,0,1,2.4-6.16,8.79,8.79,0,0,1,12.24,0,8.76,8.76,0,0,1,2.4,6.48l-.16.8Zm-4.08-3.2a3.88,3.88,0,0,0-1.6-2.16,4.6,4.6,0,0,0-2.72-.88,4.69,4.69,0,0,0-3,1,5.6,5.6,0,0,0-1.52,2.08Z" transform="translate(-73.59 -26.51)"/><path class="cls-2" d="M309,166.79h3.44v2a4.39,4.39,0,0,1,1.52-1.84,3.76,3.76,0,0,1,2.08-.64,4.65,4.65,0,0,1,1.68.4l-1.28,3.52a2.69,2.69,0,0,0-1.2-.32c-.64,0-1.12.4-1.6,1.12s-.64,2.32-.64,4.56V183h-4V166.79Z" transform="translate(-73.59 -26.51)"/><path class="cls-2" d="M317.85,166.79H322L326.17,177l4.64-10.16H335l-10.08,22.09h-4.16l3.36-7.13-6.24-15Z" transform="translate(-73.59 -26.51)"/><path class="cls-2" d="M349.21,160.55h4.09V183h-4.09v-1.68a8.37,8.37,0,0,1-2.4,1.6,6.93,6.93,0,0,1-2.56.48,7.29,7.29,0,0,1-5.44-2.4,8.4,8.4,0,0,1-2.32-6,8.6,8.6,0,0,1,2.24-6.16,7,7,0,0,1,5.36-2.4,6.38,6.38,0,0,1,2.72.56,6.62,6.62,0,0,1,2.32,1.68v-8.08Zm-4.24,9.6a4.05,4.05,0,0,0-3.12,1.36,4.92,4.92,0,0,0-1.28,3.44,4.71,4.71,0,0,0,1.28,3.44,4.31,4.31,0,0,0,3.12,1.36,4.35,4.35,0,0,0,3.2-1.36,5.12,5.12,0,0,0,1.28-3.52,4.59,4.59,0,0,0-1.28-3.44A4.28,4.28,0,0,0,345,170.15Z" transform="translate(-73.59 -26.51)"/><path class="cls-2" d="M369.3,166.79h4.08V183H369.3v-1.68a8.37,8.37,0,0,1-2.4,1.6,6.93,6.93,0,0,1-2.56.48,7.29,7.29,0,0,1-5.44-2.4,8.4,8.4,0,0,1-2.32-6,8.6,8.6,0,0,1,2.24-6.16,7,7,0,0,1,5.36-2.4,6.38,6.38,0,0,1,2.72.56,6.62,6.62,0,0,1,2.32,1.68v-1.84Zm-4.24,3.36a4.05,4.05,0,0,0-3.12,1.36,4.92,4.92,0,0,0-1.28,3.44,4.71,4.71,0,0,0,1.28,3.44,4.31,4.31,0,0,0,3.12,1.36,4.35,4.35,0,0,0,3.2-1.36,5.12,5.12,0,0,0,1.28-3.52,4.59,4.59,0,0,0-1.28-3.44A4.28,4.28,0,0,0,365.06,170.15Z" transform="translate(-73.59 -26.51)"/><path class="cls-2" d="M375.62,166.79h4.16L383.94,177l4.64-10.16h4.16l-10.08,22.09H378.5l3.36-7.13-6.24-15Z" transform="translate(-73.59 -26.51)"/><path class="cls-2" d="M405.78,178.71a2.58,2.58,0,0,1,1.68.64,2.13,2.13,0,0,1,.72,1.6,2.4,2.4,0,0,1-4.8,0,2,2,0,0,1,.72-1.6A2.58,2.58,0,0,1,405.78,178.71Z" transform="translate(-73.59 -26.51)"/><path class="cls-2" d="M436.42,170.07l-3.36,1.84a5.68,5.68,0,0,0-1.92-1.36,6.11,6.11,0,0,0-2.16-.4,5.22,5.22,0,0,0-3.68,1.36,4.53,4.53,0,0,0-1.44,3.44,4.58,4.58,0,0,0,1.36,3.36,4.77,4.77,0,0,0,3.52,1.28,5.28,5.28,0,0,0,4.24-1.84l3.2,2.16a8.76,8.76,0,0,1-7.36,3.36,8.67,8.67,0,0,1-6.64-2.56,8.35,8.35,0,0,1-2.4-5.92,8,8,0,0,1,1.2-4.32,8.8,8.8,0,0,1,3.28-3.12,10.27,10.27,0,0,1,4.72-1.12,9.53,9.53,0,0,1,4.32,1,9.81,9.81,0,0,1,3.12,2.88Z" transform="translate(-73.59 -26.51)"/><path class="cls-2" d="M447.63,166.39a9.14,9.14,0,0,1,4.32,1.12,7.81,7.81,0,0,1,3.12,3.12,8.59,8.59,0,0,1,0,8.48,7.34,7.34,0,0,1-3.12,3.12,8.68,8.68,0,0,1-4.32,1.12,7.86,7.86,0,0,1-5.92-2.48,8.48,8.48,0,0,1-2.48-6,8.19,8.19,0,0,1,2.8-6.32,8.35,8.35,0,0,1,5.6-2.16Zm.08,3.84a4,4,0,0,0-3.12,1.28,4.86,4.86,0,0,0-1.28,3.36,4.59,4.59,0,0,0,1.28,3.44,4,4,0,0,0,3.12,1.28,4.07,4.07,0,0,0,3.2-1.36,5,5,0,0,0,0-6.72,4.28,4.28,0,0,0-3.2-1.28Z" transform="translate(-73.59 -26.51)"/><path class="cls-2" d="M459.55,166.79h4.08v7.76a9.33,9.33,0,0,0,.32,3.12,2.75,2.75,0,0,0,2.72,1.84,2.78,2.78,0,0,0,1.68-.48,2.82,2.82,0,0,0,1-1.44,11.32,11.32,0,0,0,.24-3v-7.92h4.08v6.88a18.12,18.12,0,0,1-.64,5.76,6.16,6.16,0,0,1-2.4,2.88,7.6,7.6,0,0,1-4,1,7.26,7.26,0,0,1-4.32-1.2,6.52,6.52,0,0,1-2.32-3.28,20,20,0,0,1-.48-5.36Z" transform="translate(-73.59 -26.51)"/><path class="cls-2" d="M493.55,170.07l-3.36,1.84a5.68,5.68,0,0,0-1.92-1.36,6.11,6.11,0,0,0-2.16-.4,5.22,5.22,0,0,0-3.68,1.36A4.53,4.53,0,0,0,481,175a4.58,4.58,0,0,0,1.36,3.36,4.77,4.77,0,0,0,3.52,1.28,5.28,5.28,0,0,0,4.24-1.84l3.2,2.16a8.76,8.76,0,0,1-7.36,3.36,8.67,8.67,0,0,1-6.64-2.56,8.35,8.35,0,0,1-2.4-5.92,8,8,0,0,1,1.2-4.32,8.8,8.8,0,0,1,3.28-3.12,10.27,10.27,0,0,1,4.72-1.12,9.53,9.53,0,0,1,4.32,1,9.81,9.81,0,0,1,3.12,2.88Z" transform="translate(-73.59 -26.51)"/><path class="cls-2" d="M497.23,160.55h4v7.84a8,8,0,0,1,2.4-1.52,6.42,6.42,0,0,1,2.4-.48,5.55,5.55,0,0,1,4.08,1.68,5.79,5.79,0,0,1,1.44,4.24V183h-4v-7.12a20.54,20.54,0,0,0-.24-3.84,3.19,3.19,0,0,0-.88-1.52,2.54,2.54,0,0,0-1.6-.48,2.83,2.83,0,0,0-2.08.8,4.64,4.64,0,0,0-1.2,2.24,24.66,24.66,0,0,0-.16,3.36v6.48h-4V160.55Z" transform="translate(-73.59 -26.51)"/><path class="cls-2" d="M526.2,178.71a2.58,2.58,0,0,1,1.68.64,2.13,2.13,0,0,1,.72,1.6,2.41,2.41,0,0,1-4.81,0,2,2,0,0,1,.72-1.6A2.63,2.63,0,0,1,526.2,178.71Z" transform="translate(-73.59 -26.51)"/><path class="cls-2" d="M550.92,169.11l-2.48,2.48a4.11,4.11,0,0,0-2.8-1.52,1.36,1.36,0,0,0-1,.32.84.84,0,0,0-.4.72,1.06,1.06,0,0,0,.24.64,5.55,5.55,0,0,0,1.2.72l1.52.72a7.72,7.72,0,0,1,3.2,2.4,4.85,4.85,0,0,1,.88,2.8,4.73,4.73,0,0,1-1.6,3.6,6.05,6.05,0,0,1-4.24,1.44,6.94,6.94,0,0,1-5.68-2.8l2.48-2.72a5.48,5.48,0,0,0,1.68,1.36,3.87,3.87,0,0,0,1.68.48,2,2,0,0,0,1.28-.4,1.11,1.11,0,0,0,.48-.88c0-.64-.56-1.2-1.76-1.84l-1.36-.72c-2.64-1.28-3.92-3-3.92-5a4.31,4.31,0,0,1,1.44-3.28,5.42,5.42,0,0,1,3.76-1.36,6.46,6.46,0,0,1,3,.72,7,7,0,0,1,2.48,2.08Z" transform="translate(-73.59 -26.51)"/><path class="cls-2" d="M554.36,160.55h4v7.84a8,8,0,0,1,2.4-1.52,6.42,6.42,0,0,1,2.4-.48,5.55,5.55,0,0,1,4.08,1.68,5.79,5.79,0,0,1,1.44,4.24V183h-4v-7.12a20.54,20.54,0,0,0-.24-3.84,3.19,3.19,0,0,0-.88-1.52A2.54,2.54,0,0,0,562,170a2.83,2.83,0,0,0-2.08.8,4.64,4.64,0,0,0-1.2,2.24,24.66,24.66,0,0,0-.16,3.36v6.48h-4V160.55Z" transform="translate(-73.59 -26.51)"/><path class="cls-2" d="M580.2,166.39a9.14,9.14,0,0,1,4.32,1.12,7.81,7.81,0,0,1,3.12,3.12,8.59,8.59,0,0,1,0,8.48,7.34,7.34,0,0,1-3.12,3.12,8.68,8.68,0,0,1-4.32,1.12,7.86,7.86,0,0,1-5.92-2.48,8.48,8.48,0,0,1-2.48-6,8.44,8.44,0,0,1,8.4-8.48Zm.08,3.84a4,4,0,0,0-3.12,1.28,4.86,4.86,0,0,0-1.28,3.36,4.59,4.59,0,0,0,1.28,3.44,4,4,0,0,0,3.12,1.28,4.07,4.07,0,0,0,3.2-1.36,5,5,0,0,0,0-6.72,4.28,4.28,0,0,0-3.2-1.28Z" transform="translate(-73.59 -26.51)"/><path class="cls-2" d="M596.12,166.79v1.76a8.15,8.15,0,0,1,2.4-1.68,6.38,6.38,0,0,1,2.72-.56,7,7,0,0,1,5.36,2.4,8.82,8.82,0,0,1,2.24,6.16,8.4,8.4,0,0,1-2.32,6,7.29,7.29,0,0,1-5.44,2.4,6.63,6.63,0,0,1-2.56-.48,8.37,8.37,0,0,1-2.4-1.6v7.61h-4V166.71h4Zm4.24,3.36a4.28,4.28,0,0,0-3.2,1.28,4.59,4.59,0,0,0-1.28,3.44,4.9,4.9,0,0,0,1.28,3.52,4.35,4.35,0,0,0,3.2,1.36,4.31,4.31,0,0,0,3.12-1.36,5.26,5.26,0,0,0,0-6.88A3.8,3.8,0,0,0,600.36,170.15Z" transform="translate(-73.59 -26.51)"/><path class="cls-2" d="M616.21,166.79v1.76a8.15,8.15,0,0,1,2.4-1.68,6.38,6.38,0,0,1,2.72-.56,7,7,0,0,1,5.36,2.4,8.82,8.82,0,0,1,2.24,6.16,8.4,8.4,0,0,1-2.32,6,7.29,7.29,0,0,1-5.44,2.4,6.63,6.63,0,0,1-2.56-.48,8.37,8.37,0,0,1-2.4-1.6v7.61h-4V166.71h4Zm4.24,3.36a4.28,4.28,0,0,0-3.2,1.28,4.59,4.59,0,0,0-1.28,3.44,4.9,4.9,0,0,0,1.28,3.52,4.35,4.35,0,0,0,3.2,1.36,4.31,4.31,0,0,0,3.12-1.36,5.26,5.26,0,0,0,0-6.88A3.8,3.8,0,0,0,620.45,170.15Z" transform="translate(-73.59 -26.51)"/><path class="cls-2" d="M633.81,160.15a2.43,2.43,0,0,1,1.84.8,2.6,2.6,0,0,1,.8,1.84,2.53,2.53,0,0,1-.72,1.84,2.6,2.6,0,0,1-1.84.8,2.32,2.32,0,0,1-1.84-.8,2.65,2.65,0,0,1-.8-1.92,2.46,2.46,0,0,1,2.56-2.56Zm-2,6.64h4.08V183h-4.08Z" transform="translate(-73.59 -26.51)"/><path class="cls-2" d="M639.49,166.79h4.08v1.68a9.14,9.14,0,0,1,2.48-1.6,5.74,5.74,0,0,1,2.32-.48,5.55,5.55,0,0,1,4.08,1.68,5.67,5.67,0,0,1,1.44,4.24V183h-4v-7a19.39,19.39,0,0,0-.24-3.84,2.61,2.61,0,0,0-.88-1.44,2.54,2.54,0,0,0-1.6-.48,2.83,2.83,0,0,0-2.08.8,4.64,4.64,0,0,0-1.2,2.24,24.07,24.07,0,0,0-.16,3.28V183h-4.08V166.79Z" transform="translate(-73.59 -26.51)"/><path class="cls-2" d="M669.73,166.79h4v13.84c0,2.72-.56,4.73-1.68,6-1.44,1.76-3.68,2.64-6.64,2.64a11.77,11.77,0,0,1-4-.56,7,7,0,0,1-2.72-1.76,8.17,8.17,0,0,1-1.68-2.8h4.48a3.45,3.45,0,0,0,1.52,1,6.31,6.31,0,0,0,2.24.32,6,6,0,0,0,2.64-.48,3.72,3.72,0,0,0,1.44-1.29,7.37,7.37,0,0,0,.4-2.8,6.56,6.56,0,0,1-2.24,1.52,7,7,0,0,1-2.64.48,7.56,7.56,0,0,1-5.52-2.32,9,9,0,0,1,.16-12.08,6.88,6.88,0,0,1,5.12-2.08,7,7,0,0,1,2.64.48,7.57,7.57,0,0,1,2.48,1.68v-1.84Zm-4.24,3.36a4.28,4.28,0,0,0-3.2,1.28,4.61,4.61,0,0,0-1.28,3.2,4.22,4.22,0,0,0,1.28,3.28,4.28,4.28,0,0,0,3.2,1.28,4,4,0,0,0,3.12-1.28,4.48,4.48,0,0,0-3.12-7.76Z" transform="translate(-73.59 -26.51)"/><path class="cls-3" d="M157.59,96.54a4.37,4.37,0,0,0-3.28,5.53,5.1,5.1,0,0,0,5.84,3.92,4.43,4.43,0,0,0,3-5.68A5.08,5.08,0,0,0,157.59,96.54Zm2.32,8.49a4.12,4.12,0,0,1-4.72-3.12,3.83,3.83,0,0,1,.48-3.12,3.9,3.9,0,0,0,0,1.92,4.12,4.12,0,0,0,4.72,3.12,3,3,0,0,0,1.92-1.28A3.29,3.29,0,0,1,159.91,105Zm-3.68-13.21a3.6,3.6,0,0,0,3-4.8,5.11,5.11,0,0,0-5.28-3.6,3.7,3.7,0,0,0-3.28,4.64A5.13,5.13,0,0,0,156.23,91.82Zm-4.32-6A2.33,2.33,0,0,0,152,87.1,4,4,0,0,0,156.31,90a2.8,2.8,0,0,0,2.08-1.36,2.8,2.8,0,0,1-2.4,2.32,4.08,4.08,0,0,1-4.32-2.88A2.71,2.71,0,0,1,151.91,85.82Zm2.72,8.8a5.18,5.18,0,0,0-5.52-3.84,4.34,4.34,0,0,0-3.6,5.36,5.16,5.16,0,0,0,5.84,4A4.41,4.41,0,0,0,154.63,94.62ZM151,99.11A4,4,0,0,1,146.47,96,3.54,3.54,0,0,1,147,93.1a4.69,4.69,0,0,0-.08,1.84,4.05,4.05,0,0,0,4.56,3.13,3.14,3.14,0,0,0,2.08-1.37A3.28,3.28,0,0,1,151,99.11Zm10.88-10.33c-2.16.32-3.52,2.48-2.8,5a5,5,0,0,0,5.36,3.77A3.7,3.7,0,0,0,167,92.46,5,5,0,0,0,161.91,88.78Zm2.24,7.68a3.72,3.72,0,0,1-4.08-2.88,3.89,3.89,0,0,1,0-1.92c.16,2.08,2.16,4,4.24,3.6a2.39,2.39,0,0,0,2-1.84A2.71,2.71,0,0,1,164.15,96.46Zm-21.52,10.65,1.36,4.32c-.4,0-.88.08-1.28.08l-1-3a34.29,34.29,0,0,0-7.52,1.76l-.24-1.12A26.34,26.34,0,0,1,142.63,107.11Zm-22.56-9.69-7.68,2.73-2.72-7.69a14.15,14.15,0,0,1,8.08,2.32,13.87,13.87,0,0,0-13.52-2.48,15.46,15.46,0,0,0-3.44,1.76c-1.44,1.84-2.88,3.61-4.4,5.29a13.56,13.56,0,0,0-.56,10.48,13.79,13.79,0,0,0,26.56-2.08,13.67,13.67,0,0,1-4.88,6.64L114.87,107l7.68-2.72Zm-14.4-4,2.88,8.09-1.52.56-2.88-8.17C104.63,93.74,105.11,93.58,105.67,93.42Zm-3,1,2.88,8.09-8.16,2.88A12.77,12.77,0,0,1,102.71,94.46Zm-2.88,17.85,8.16-2.88,2.88,8.08A12.93,12.93,0,0,1,99.83,112.31ZM116,114.55l.16.56a11.55,11.55,0,0,1-3.84,1.92L109,107.51,99.11,111a12,12,0,0,1-1.44-4l1.44-.48a14.79,14.79,0,0,0,1.2,3.12l9.84-3.52,3.36,9.52A9.6,9.6,0,0,0,116,114.55Zm-1.52-9-.32-.88,6.16-2.16.32.88Z" transform="translate(-73.59 -26.51)"/><path class="cls-4" d="M96.55,158.23c-4.16-1.52-6.09-8.24-6.09-16.8,0-4.32-.08-18.56.08-23.84,6.49,7,14.33,8.64,23.45,5a18.61,18.61,0,0,1-23.21-18,24,24,0,0,1,2.65-10.17c-5.05,6.17-4.65,7.69-5.21,15.29-.8,11.6-1,23.28-1.28,34.88-.24,6.56,1.36,16,8.81,17.92,8.8,2.32,16.08-6.88,18.4-14.4,1.28-4,2.4-8.08,3.52-12.08-6.4,20.08-14.64,24.64-21.12,22.24Z" transform="translate(-73.59 -26.51)"/><path class="cls-4" d="M180.08,119.19c3,9.6-6.65,9.2-11.61,4.56-1.92-1.84-6.24-5.12-9-7.44l5.52-3.52c-2.24.8-8.4,3.2-10.64,4.08a81.74,81.74,0,0,1,13.36,11c3.68,3.6,12.17,6.48,15.53,1.36,3.12-4.72-10.33-27.12-13-32.17,3.92,8.25,7.92,16,9.85,22.09Z" transform="translate(-73.59 -26.51)"/><path class="cls-4" d="M127.11,99.51l1.44-10.65c3.6-2.32,8.56-3.76,13.84-5a87.57,87.57,0,0,0-17.6,3.92A51.91,51.91,0,0,1,127.11,99.51Z" transform="translate(-73.59 -26.51)"/><path class="cls-4" d="M152.55,101.35c-3.6,1.68-7.84-.72-8.72-4.57a6.17,6.17,0,0,1,.8-4.48,5.85,5.85,0,0,0-2.16,5.93,6.38,6.38,0,0,0,8.72,4.56c.08,3.76,3.76,7,7.6,6.16a5.63,5.63,0,0,0,3.36-2.32,5.08,5.08,0,0,1-2,.88C156.31,108.39,152.71,105.11,152.55,101.35Z" transform="translate(-73.59 -26.51)"/><path class="cls-4" d="M101,88.94c7.68-4,16.32-2.56,21.92,6.16C116.71,80,108.39,83.34,101,88.94Z" transform="translate(-73.59 -26.51)"/><path class="cls-5" d="M75,121c3.52-3.36,7-6.72,10.48-10.08-.48,7.2-.72,16.48-1,24.8l-7.6-5C73.74,128.47,72.3,123.59,75,121Zm100.89-18.72c3.37,6.72,6.65,13.44,9.77,20.32,3.36,7.36-2.16,12.48-9.13,12.16-9.2-.4-18.08-13.76-28.4-18,3.2-1.44,6.4-2.72,9.76-4-11,1.52-21,3.84-31.2,8.48.24-4.24.56-8.4.88-12.64-3.68,13.44-6.8,27-11,40.32-2.48,7.92-8.56,15.84-17.36,16.56-4.88.4-9.61-1.84-12.41-7,4.56,15.68,23.61,10.4,30.65-.72,3.76,2.56,7.2,1.28,10.24-1.76a177.43,177.43,0,0,0,24.4-29.6c6.48,1,14.72,12.8,24.64,12.88,10.57,0,15-8.08,10.57-17.68l-11.45-19.28Z" transform="translate(-73.59 -26.51)"/><path class="cls-6" d="M124.55,135.51c-1.52,5.76-3.2,13-5.68,18.4,2.72,1.84,3.84,1.68,6.24-.72a172.66,172.66,0,0,0,23.84-29l.32-.56c-15.52,20.24-25.44,23.6-24.72,11.84Z" transform="translate(-73.59 -26.51)"/><path class="cls-7" d="M138.07,68c-2.88.56-6.88,2-8.64,4.56a4.12,4.12,0,0,0-.8,3.12c-.64.08-1.44.08-1.44,1l.48,7.84c-1.76.48-3.44,1-5.12,1.52-5.44-8.88-17-6-23.68-.64a22.17,22.17,0,0,1,10.88-6.64c-2.08-1.52-3.12-2.32-5.84-1.28a34.83,34.83,0,0,0-10.48,5.76,5.06,5.06,0,0,0-2.17,3.44l-.4,6.88c-4.4,5.37-4.72,7.93-5.12,13.77-.72-6.16-2.32-8.8,2.48-14.81l.4-6.08c.16-2.32,1.44-3.92,3.21-5.36a36.07,36.07,0,0,1,11.28-6.16c4.08-1.52,5.84-.24,9,2.08a93.43,93.43,0,0,0,6.32-15.84c4.32,2.08,9.44,2.08,14.08.88C141.67,59.42,150.87,65.42,138.07,68Zm29.68-24a6.84,6.84,0,0,0-1-2.32,26.68,26.68,0,0,1-2.88,13.12,7.75,7.75,0,1,1-4.48-4.64A14.9,14.9,0,0,1,155.51,56a1.71,1.71,0,1,0,2.16,2.64c4-3.28,6-9,6.48-14,.56-6.56-1.84-17.44-9.92-18.08-7.92-.64-12.16,9.28-12.8,15.84l3.68-1.28c.72-4.08,3.68-11.52,8.8-11,3.92.32,5.76,4.72,6.48,8.88a10.85,10.85,0,0,0-2.32.48L130.63,49c-5.6,1.76-8.32,3.28-10.32,6.88-3.2-.16-6-1.76-8.48-4.32,3.84,8.16,11.92,9.2,20.08,7.68,15.68-4.16,21.6,8.24,6.72,11.2-2.08.4-5.68,1.6-7,3.44a1.37,1.37,0,0,0-.32,1.28c.64-.08,1.52-.4,1.84.48l.32,1-4.4.88h4.72l.4,1-4.8,1h5l.32,1-5,1h5.44l.4,1.28a95,95,0,0,1,12.8-1.28c-1.2-.16-3.84-.72-5-.88.48-5,4.64-5.2,9.36-4.72-3.6-1-7.28-.88-9,.88.08-1.76-.16-3.12,2.16-3.36a23.36,23.36,0,0,1,9.36.88c3,1,2.88,1.28,4.72,3.68,5.68,3.2,7.36,7.44,10.16,12.8.88-2.48,1.68-5,2.4-7.6,1.84-6.32,2.8-7.68,1.36-13.76l-6-25.36Z" transform="translate(-73.59 -26.51)"/><path class="cls-8" d="M125,56.06a27,27,0,0,0,6.16-.48,26.77,26.77,0,0,1,7.6-1c4.8-4.16,11.36-7.92,19.36-11.28l-26.24,9.12C129.27,53.34,126.71,54.14,125,56.06Z" transform="translate(-73.59 -26.51)"/></svg>