<svg id="Layer_1" data-name="Layer 1" xmlns="http://www.w3.org/2000/svg" xmlns:xlink="http://www.w3.org/1999/xlink" viewBox="0 0 309.5 77.24"><defs><style>.cls-1{fill:#f9a629;}.cls-2,.cls-5{fill:#494949;}.cls-3,.cls-4,.cls-5,.cls-6,.cls-7,.cls-8{fill-rule:evenodd;}.cls-3{fill:url(#radial-gradient);}.cls-4{fill:#dbdcdc;}.cls-6{fill:url(#linear-gradient);}.cls-7{fill:url(#radial-gradient-2);}.cls-8{fill:url(#linear-gradient-2);}</style><radialGradient id="radial-gradient" cx="296.49" cy="162.05" r="58.47" gradientTransform="matrix(1, 0, 0, -1, 0, 212.28)" gradientUnits="userSpaceOnUse"><stop offset="0" stop-color="#fff"/><stop offset="0.5" stop-color="#f7b525"/><stop offset="1" stop-color="#c71b23"/></radialGradient><linearGradient id="linear-gradient" x1="295.68" y1="95.72" x2="295.68" y2="116.68" gradientTransform="matrix(1, 0, 0, -1, 0, 212.28)" gradientUnits="userSpaceOnUse"><stop offset="0" stop-color="#fff"/><stop offset="1" stop-color="#fff" stop-opacity="0"/></linearGradient><radialGradient id="radial-gradient-2" cx="300.17" cy="201.11" r="101.29" xlink:href="#radial-gradient"/><linearGradient id="linear-gradient-2" x1="299.21" y1="162.59" x2="299.21" y2="150.49" xlink:href="#linear-gradient"/></defs><path d="M327.92,63.18h5.92V95.87h-5.92Z" transform="translate(-266.98 -47.72)"/><path d="M355.48,72.29h5.92V95.87h-5.92v-2.5A11.71,11.71,0,0,1,352,95.76a9.74,9.74,0,0,1-3.8.72,10.51,10.51,0,0,1-7.9-3.53A12.32,12.32,0,0,1,337,84.14a12.69,12.69,0,0,1,3.23-9A10.28,10.28,0,0,1,348,71.69a10.15,10.15,0,0,1,4,.79,10.93,10.93,0,0,1,3.45,2.4V72.29Zm-6.19,4.86a6,6,0,0,0-4.55,1.94,7.68,7.68,0,0,0,0,10,6.38,6.38,0,0,0,9.19,0A7.11,7.11,0,0,0,355.78,84a6.87,6.87,0,0,0-1.82-5,6.36,6.36,0,0,0-4.67-1.9Z" transform="translate(-266.98 -47.72)"/><path d="M365.28,72.29h18.07l-10.6,18.57h10v5H363.68l10.63-18.56h-9Z" transform="translate(-266.98 -47.72)"/><path d="M383,72.29h6l6.12,14.81,6.75-14.81H408l-14.77,32.2h-6.07L392,94.09l-9-21.8Z" transform="translate(-266.98 -47.72)"/><path class="cls-1" d="M424.65,75.6,421,79.24c-1.48-1.48-2.85-2.2-4.06-2.2a2.59,2.59,0,0,0-1.56.42,1.25,1.25,0,0,0-.57,1.06,1.31,1.31,0,0,0,.34.87A6.39,6.39,0,0,0,417,80.5l2.16,1.1a13,13,0,0,1,4.71,3.45,7,7,0,0,1,1.29,4.1,6.74,6.74,0,0,1-2.32,5.24,8.8,8.8,0,0,1-6.18,2.09,9.78,9.78,0,0,1-8.24-4L412,88.51a8.7,8.7,0,0,0,2.43,2,5.57,5.57,0,0,0,2.47.76,3,3,0,0,0,1.9-.57,1.59,1.59,0,0,0,.72-1.29c0-.91-.87-1.79-2.58-2.66l-2-1c-3.79-1.93-5.73-4.32-5.73-7.21a6.25,6.25,0,0,1,2.17-4.78,7.76,7.76,0,0,1,5.5-2,9.49,9.49,0,0,1,4.33,1,8.15,8.15,0,0,1,3.45,2.81Z" transform="translate(-266.98 -47.72)"/><path class="cls-1" d="M428.68,63.18h5.88V74.69a13.06,13.06,0,0,1,3.5-2.24,9,9,0,0,1,3.56-.76,7.92,7.92,0,0,1,5.93,2.43c1.36,1.4,2.05,3.45,2.05,6.19V95.87h-5.85V85.54a24.88,24.88,0,0,0-.38-5.54A3.92,3.92,0,0,0,442,77.84a3.6,3.6,0,0,0-2.31-.72,4.31,4.31,0,0,0-3.08,1.17,6.23,6.23,0,0,0-1.78,3.27,25.06,25.06,0,0,0-.27,4.86v9.45h-5.88V63.18Z" transform="translate(-266.98 -47.72)"/><path class="cls-1" d="M465.24,71.69a12.46,12.46,0,0,1,6.26,1.67,11.9,11.9,0,0,1,4.6,4.52,12,12,0,0,1,1.63,6.18,12.38,12.38,0,0,1-1.67,6.23,12.07,12.07,0,0,1-4.52,4.56,12.38,12.38,0,0,1-6.3,1.63A12.26,12.26,0,0,1,453,84.1a12.36,12.36,0,0,1,12.23-12.41Zm.11,5.58a6.06,6.06,0,0,0-4.59,1.93,7.61,7.61,0,0,0,0,9.88A6.11,6.11,0,0,0,465.35,91,6.19,6.19,0,0,0,470,89a7,7,0,0,0,1.86-5A6.8,6.8,0,0,0,470,79.13a6.45,6.45,0,0,0-4.67-1.86Z" transform="translate(-266.98 -47.72)"/><path class="cls-1" d="M487.34,72.29v2.62a11.35,11.35,0,0,1,3.45-2.39,10.11,10.11,0,0,1,4-.79,10.38,10.38,0,0,1,7.86,3.49,12.6,12.6,0,0,1,3.22,9A12.32,12.32,0,0,1,502.52,93a10.55,10.55,0,0,1-7.89,3.53,9.74,9.74,0,0,1-3.8-.72,12,12,0,0,1-3.49-2.4v11.13h-5.89V72.29Zm6.22,4.86a6.23,6.23,0,0,0-4.63,1.9,6.93,6.93,0,0,0-1.86,5,7,7,0,0,0,1.86,5.08,6.11,6.11,0,0,0,4.63,1.94,6,6,0,0,0,4.56-2,7.2,7.2,0,0,0,1.86-5,7,7,0,0,0-1.82-5,6,6,0,0,0-4.6-1.94Z" transform="translate(-266.98 -47.72)"/><path class="cls-1" d="M515.54,72.29v2.62A11.39,11.39,0,0,1,519,72.52a10.11,10.11,0,0,1,4-.79,10.35,10.35,0,0,1,7.85,3.49,12.56,12.56,0,0,1,3.23,9A12.32,12.32,0,0,1,530.73,93a10.56,10.56,0,0,1-7.9,3.53A9.69,9.69,0,0,1,519,95.8a12.18,12.18,0,0,1-3.5-2.4v11.13h-5.88V72.29Zm6.23,4.86a6.21,6.21,0,0,0-4.63,1.9,6.89,6.89,0,0,0-1.86,5,7,7,0,0,0,1.86,5.08,6.1,6.1,0,0,0,4.63,1.94,6,6,0,0,0,4.56-2,7.2,7.2,0,0,0,1.86-5,7,7,0,0,0-1.83-5,6,6,0,0,0-4.59-1.94Z" transform="translate(-266.98 -47.72)"/><path class="cls-1" d="M561.48,85.81h-19a6.4,6.4,0,0,0,2.2,4,6.9,6.9,0,0,0,4.56,1.48,7.87,7.87,0,0,0,5.7-2.32l5,2.36a11.89,11.89,0,0,1-4.48,3.91,14.27,14.27,0,0,1-6.19,1.25,12.32,12.32,0,0,1-9-3.49,11.93,11.93,0,0,1-3.49-8.77,12.36,12.36,0,0,1,3.49-9,11.63,11.63,0,0,1,8.74-3.57A12.08,12.08,0,0,1,558,75.26a12.9,12.9,0,0,1,3.49,9.41v1.14Zm-5.92-4.67A5.77,5.77,0,0,0,553.24,78a6.55,6.55,0,0,0-4-1.25,6.89,6.89,0,0,0-4.33,1.4,7.32,7.32,0,0,0-2.16,3Z" transform="translate(-266.98 -47.72)"/><path class="cls-1" d="M563.8,72.29h5.09v3a6.17,6.17,0,0,1,2.2-2.66,5.25,5.25,0,0,1,3-.91,5.41,5.41,0,0,1,2.39.6l-1.86,5.09a4.1,4.1,0,0,0-1.71-.53,2.73,2.73,0,0,0-2.31,1.71c-.65,1.14-1,3.34-1,6.64l0,1.14v9.53H563.8Z" transform="translate(-266.98 -47.72)"/><path class="cls-2" d="M360.26,118.69h-6.18a2,2,0,0,0,.72,1.29,2.33,2.33,0,0,0,1.48.49,2.62,2.62,0,0,0,1.86-.76l1.63.76a3.82,3.82,0,0,1-1.44,1.26,4.74,4.74,0,0,1-2,.41,4,4,0,0,1-2.93-1.13,3.87,3.87,0,0,1-1.14-2.85,4.05,4.05,0,0,1,1.14-2.93,4.19,4.19,0,0,1,5.81,0,4.17,4.17,0,0,1,1.14,3.08l-.08.38Zm-1.93-1.52a1.83,1.83,0,0,0-.76-1,2.16,2.16,0,0,0-1.29-.42,2.26,2.26,0,0,0-1.41.45,2.72,2.72,0,0,0-.72,1Z" transform="translate(-266.98 -47.72)"/><path class="cls-2" d="M361,114.29h2l1.94,4.51,1.93-4.51h1.94L365.5,122h-1.25L361,114.29Z" transform="translate(-266.98 -47.72)"/><path class="cls-2" d="M377.58,118.69h-6.19a2,2,0,0,0,.72,1.29,2.33,2.33,0,0,0,1.48.49,2.62,2.62,0,0,0,1.86-.76l1.63.76a3.82,3.82,0,0,1-1.44,1.26,4.74,4.74,0,0,1-2,.41A4,4,0,0,1,370.7,121a3.86,3.86,0,0,1-1.13-2.85,4,4,0,0,1,1.13-2.93,4.19,4.19,0,0,1,5.81,0,4.17,4.17,0,0,1,1.14,3.08l-.07.38Zm-1.94-1.52a1.79,1.79,0,0,0-.76-1,2.16,2.16,0,0,0-1.29-.42,2.26,2.26,0,0,0-1.41.45,2.72,2.72,0,0,0-.72,1Z" transform="translate(-266.98 -47.72)"/><path class="cls-2" d="M378.68,114.29h1.63v.94a2.1,2.1,0,0,1,.72-.87,1.78,1.78,0,0,1,1-.3,2.15,2.15,0,0,1,.8.19l-.61,1.67a1.21,1.21,0,0,0-.57-.15c-.31,0-.53.19-.76.53a4.65,4.65,0,0,0-.3,2.16V122h-1.9v-7.66Z" transform="translate(-266.98 -47.72)"/><path class="cls-2" d="M382.89,114.29h2l2,4.82,2.2-4.82h2l-4.79,10.47h-2l1.59-3.38-3-7.09Z" transform="translate(-266.98 -47.72)"/><path class="cls-2" d="M397.77,111.32h1.94V122h-1.94v-.79a4.31,4.31,0,0,1-1.13.76,3.34,3.34,0,0,1-1.22.22,3.47,3.47,0,0,1-2.58-1.13,4,4,0,0,1-1.1-2.85,4.1,4.1,0,0,1,1.06-2.93,3.31,3.31,0,0,1,2.54-1.13,3.05,3.05,0,0,1,1.3.26,3.3,3.3,0,0,1,1.1.8v-3.84Zm-2,4.56a1.91,1.91,0,0,0-1.48.65,2.3,2.3,0,0,0-.61,1.63,2.23,2.23,0,0,0,.61,1.63,2,2,0,0,0,1.48.65,2.06,2.06,0,0,0,1.52-.65,2.44,2.44,0,0,0,.61-1.67,2.16,2.16,0,0,0-.61-1.63A2,2,0,0,0,395.76,115.88Z" transform="translate(-266.98 -47.72)"/><path class="cls-2" d="M407.3,114.29h1.94V122H407.3v-.79a4.19,4.19,0,0,1-1.14.76,3.29,3.29,0,0,1-1.21.22,3.47,3.47,0,0,1-2.58-1.13,4,4,0,0,1-1.1-2.85,4.1,4.1,0,0,1,1.06-2.93,3.31,3.31,0,0,1,2.54-1.13,3,3,0,0,1,1.29.26,3.23,3.23,0,0,1,1.11.8v-.87Zm-2,1.59a1.91,1.91,0,0,0-1.48.65,2.3,2.3,0,0,0-.61,1.63,2.23,2.23,0,0,0,.61,1.63,2,2,0,0,0,1.48.65,2.06,2.06,0,0,0,1.52-.65,2.44,2.44,0,0,0,.61-1.67,2.16,2.16,0,0,0-.61-1.63A2,2,0,0,0,405.29,115.88Z" transform="translate(-266.98 -47.72)"/><path class="cls-2" d="M410.3,114.29h2l2,4.82,2.2-4.82h2l-4.79,10.47h-2l1.59-3.38-3-7.09Z" transform="translate(-266.98 -47.72)"/><path class="cls-2" d="M424.62,119.94a1.2,1.2,0,0,1,.79.31,1,1,0,0,1,.34.76,1.08,1.08,0,0,1-.34.79,1.06,1.06,0,0,1-.79.34,1.16,1.16,0,0,1-1.14-1.13.94.94,0,0,1,.34-.76A1.23,1.23,0,0,1,424.62,119.94Z" transform="translate(-266.98 -47.72)"/><path class="cls-2" d="M439.16,115.84l-1.6.87a2.67,2.67,0,0,0-.91-.64,2.94,2.94,0,0,0-1-.19,2.47,2.47,0,0,0-1.75.65,2.11,2.11,0,0,0-.68,1.63,2.16,2.16,0,0,0,.64,1.59,2.27,2.27,0,0,0,1.67.61,2.48,2.48,0,0,0,2-.87l1.52,1a4.16,4.16,0,0,1-3.49,1.6,4.1,4.1,0,0,1-3.15-1.22,4,4,0,0,1-1.14-2.81,3.79,3.79,0,0,1,.57-2,4.12,4.12,0,0,1,1.56-1.48,4.87,4.87,0,0,1,2.24-.53,4.57,4.57,0,0,1,2.05.45,4.75,4.75,0,0,1,1.48,1.37Z" transform="translate(-266.98 -47.72)"/><path class="cls-2" d="M444.47,114.1a4.35,4.35,0,0,1,2,.53,3.64,3.64,0,0,1,1.48,1.48,4.08,4.08,0,0,1,0,4,3.41,3.41,0,0,1-1.48,1.48,4.14,4.14,0,0,1-2,.53,3.75,3.75,0,0,1-2.81-1.17,4,4,0,0,1-1.17-2.85,3.89,3.89,0,0,1,1.32-3,4,4,0,0,1,2.66-1Zm0,1.82a1.88,1.88,0,0,0-1.48.61,2.27,2.27,0,0,0-.61,1.59,2.17,2.17,0,0,0,.61,1.63,1.88,1.88,0,0,0,1.48.61,1.92,1.92,0,0,0,1.52-.65,2.38,2.38,0,0,0,0-3.18,2,2,0,0,0-1.52-.61Z" transform="translate(-266.98 -47.72)"/><path class="cls-2" d="M450.13,114.29h1.94V118a4.29,4.29,0,0,0,.15,1.48,1.37,1.37,0,0,0,.49.64,1.35,1.35,0,0,0,.8.23,1.29,1.29,0,0,0,.8-.23,1.35,1.35,0,0,0,.49-.68,5.7,5.7,0,0,0,.11-1.4v-3.76h1.94v3.26a8.69,8.69,0,0,1-.3,2.74,3,3,0,0,1-1.14,1.36,3.57,3.57,0,0,1-1.9.5,3.43,3.43,0,0,1-2.05-.57,3,3,0,0,1-1.1-1.56,9.57,9.57,0,0,1-.23-2.54Z" transform="translate(-266.98 -47.72)"/><path class="cls-2" d="M466.26,115.84l-1.59.87a2.67,2.67,0,0,0-.91-.64,3,3,0,0,0-1-.19,2.44,2.44,0,0,0-1.74.65,2.12,2.12,0,0,0-.69,1.63,2.17,2.17,0,0,0,.65,1.59,2.27,2.27,0,0,0,1.67.61,2.49,2.49,0,0,0,2-.87l1.52,1a4.16,4.16,0,0,1-3.49,1.6,4.1,4.1,0,0,1-3.15-1.22,4,4,0,0,1-1.14-2.81,3.79,3.79,0,0,1,.57-2,4.17,4.17,0,0,1,1.55-1.48,4.93,4.93,0,0,1,2.24-.53,3.92,3.92,0,0,1,3.53,1.82Z" transform="translate(-266.98 -47.72)"/><path class="cls-2" d="M468,111.32h1.9V115a3.79,3.79,0,0,1,1.14-.72,3.08,3.08,0,0,1,1.14-.22,2.62,2.62,0,0,1,1.93.79,2.74,2.74,0,0,1,.69,2v5h-1.9v-3.37a9.3,9.3,0,0,0-.12-1.83,1.47,1.47,0,0,0-.41-.72,1.23,1.23,0,0,0-.76-.23,1.38,1.38,0,0,0-1,.38,2.33,2.33,0,0,0-.57,1.07,11.62,11.62,0,0,0-.07,1.59v3.08h-1.9v-10.6Z" transform="translate(-266.98 -47.72)"/><path class="cls-2" d="M481.75,119.94a1.23,1.23,0,0,1,.8.31,1,1,0,0,1,.34.76,1.14,1.14,0,0,1-2.27,0,.94.94,0,0,1,.34-.76A1.22,1.22,0,0,1,481.75,119.94Z" transform="translate(-266.98 -47.72)"/><path class="cls-2" d="M493.49,115.39l-1.18,1.17a2,2,0,0,0-1.33-.72.64.64,0,0,0-.49.15.39.39,0,0,0-.19.35.53.53,0,0,0,.11.3,3.12,3.12,0,0,0,.57.34l.72.34a3.68,3.68,0,0,1,1.52,1.14,2.31,2.31,0,0,1-.34,3,2.89,2.89,0,0,1-2,.68,3.28,3.28,0,0,1-2.7-1.33l1.18-1.29a2.49,2.49,0,0,0,.8.65,1.82,1.82,0,0,0,.79.23,1,1,0,0,0,.61-.19.55.55,0,0,0,.23-.42c0-.31-.27-.57-.84-.88l-.64-.34c-1.26-.6-1.86-1.4-1.86-2.35a2,2,0,0,1,.68-1.56,2.6,2.6,0,0,1,1.78-.64,3.05,3.05,0,0,1,1.41.34,3.36,3.36,0,0,1,1.18,1Z" transform="translate(-266.98 -47.72)"/><path class="cls-2" d="M495.12,111.32H497V115a3.79,3.79,0,0,1,1.14-.72,3.08,3.08,0,0,1,1.14-.22,2.63,2.63,0,0,1,1.93.79,2.73,2.73,0,0,1,.68,2v5H500v-3.37a9.3,9.3,0,0,0-.12-1.83,1.48,1.48,0,0,0-.42-.72,1.18,1.18,0,0,0-.75-.23,1.37,1.37,0,0,0-1,.38,2.16,2.16,0,0,0-.57,1.07,11,11,0,0,0-.08,1.59v3.08h-1.9v-10.6Z" transform="translate(-266.98 -47.72)"/><path class="cls-2" d="M507.38,114.1a4.35,4.35,0,0,1,2.05.53,3.64,3.64,0,0,1,1.48,1.48,4.08,4.08,0,0,1,0,4,3.41,3.41,0,0,1-1.48,1.48,4.14,4.14,0,0,1-2.05.53,3.75,3.75,0,0,1-2.81-1.17,4,4,0,0,1-1.17-2.85,4,4,0,0,1,4-4Zm0,1.82a1.88,1.88,0,0,0-1.48.61,2.27,2.27,0,0,0-.61,1.59,2.17,2.17,0,0,0,.61,1.63,1.88,1.88,0,0,0,1.48.61,1.92,1.92,0,0,0,1.52-.65,2.38,2.38,0,0,0,0-3.18,2,2,0,0,0-1.52-.61Z" transform="translate(-266.98 -47.72)"/><path class="cls-2" d="M514.94,114.29v.83a3.86,3.86,0,0,1,1.14-.8,3,3,0,0,1,1.29-.26,3.32,3.32,0,0,1,2.54,1.14,4.18,4.18,0,0,1,1.06,2.92,4,4,0,0,1-1.1,2.85,3.45,3.45,0,0,1-2.58,1.14,3.18,3.18,0,0,1-1.21-.23,4,4,0,0,1-1.14-.76v3.61H513V114.25h1.9Zm2,1.59a2,2,0,0,0-1.52.61,2.16,2.16,0,0,0-.61,1.63,2.33,2.33,0,0,0,.61,1.67,2.06,2.06,0,0,0,1.52.65,2,2,0,0,0,1.48-.65,2.23,2.23,0,0,0,.61-1.63,2.2,2.2,0,0,0-.61-1.63A1.79,1.79,0,0,0,517,115.88Z" transform="translate(-266.98 -47.72)"/><path class="cls-2" d="M524.47,114.29v.83a3.86,3.86,0,0,1,1.14-.8,3,3,0,0,1,1.29-.26,3.32,3.32,0,0,1,2.54,1.14,4.18,4.18,0,0,1,1.06,2.92,4,4,0,0,1-1.1,2.85,3.45,3.45,0,0,1-2.58,1.14,3.14,3.14,0,0,1-1.21-.23,4,4,0,0,1-1.14-.76v3.61h-1.9V114.25h1.9Zm2,1.59a2,2,0,0,0-1.52.61,2.16,2.16,0,0,0-.61,1.63,2.33,2.33,0,0,0,.61,1.67,2.06,2.06,0,0,0,1.52.65,2,2,0,0,0,1.48-.65,2.23,2.23,0,0,0,.61-1.63,2.2,2.2,0,0,0-.61-1.63A1.79,1.79,0,0,0,526.48,115.88Z" transform="translate(-266.98 -47.72)"/><path class="cls-2" d="M532.82,111.13a1.16,1.16,0,0,1,.87.38,1.25,1.25,0,0,1,.38.88,1.19,1.19,0,0,1-.34.87,1.23,1.23,0,0,1-.87.38,1.11,1.11,0,0,1-.88-.38,1.29,1.29,0,0,1-.38-.91,1.2,1.2,0,0,1,1.22-1.22Zm-1,3.16h1.94V122h-1.94Z" transform="translate(-266.98 -47.72)"/><path class="cls-2" d="M535.51,114.29h1.94v.79a4.36,4.36,0,0,1,1.18-.76,2.74,2.74,0,0,1,1.1-.22,2.66,2.66,0,0,1,1.94.79,2.71,2.71,0,0,1,.68,2v5h-1.9v-3.34a9.77,9.77,0,0,0-.11-1.82,1.26,1.26,0,0,0-.42-.68,1.23,1.23,0,0,0-.76-.23,1.34,1.34,0,0,0-1,.38,2.35,2.35,0,0,0-.57,1.06,11.5,11.5,0,0,0-.07,1.56V122h-1.94v-7.66Z" transform="translate(-266.98 -47.72)"/><path class="cls-2" d="M549.87,114.29h1.89v6.56a4.27,4.27,0,0,1-.79,2.85,3.85,3.85,0,0,1-3.15,1.25,5.59,5.59,0,0,1-1.9-.26,3.25,3.25,0,0,1-1.29-.84,3.7,3.7,0,0,1-.8-1.33H546a1.64,1.64,0,0,0,.72.5,3,3,0,0,0,1.06.15,2.84,2.84,0,0,0,1.25-.23,1.8,1.8,0,0,0,.69-.61,3.52,3.52,0,0,0,.19-1.32,3.08,3.08,0,0,1-2.32.94,3.58,3.58,0,0,1-2.62-1.1,4.28,4.28,0,0,1,.08-5.73,3.27,3.27,0,0,1,2.43-1,3.39,3.39,0,0,1,1.25.23,3.58,3.58,0,0,1,1.18.8v-.87Zm-2,1.59a2,2,0,0,0-1.51.61,2.17,2.17,0,0,0-.61,1.52,2.09,2.09,0,0,0,2.12,2.16,1.88,1.88,0,0,0,1.48-.61,2.13,2.13,0,0,0-1.48-3.68Z" transform="translate(-266.98 -47.72)"/><path class="cls-3" d="M306.85,81a2.07,2.07,0,0,0-1.56,2.62,2.41,2.41,0,0,0,2.77,1.86,2.1,2.1,0,0,0,1.44-2.69A2.4,2.4,0,0,0,306.85,81Zm1.1,4a2,2,0,0,1-2.24-1.49,1.81,1.81,0,0,1,.22-1.48,2,2,0,0,0,0,.92,2,2,0,0,0,2.24,1.48,1.46,1.46,0,0,0,.92-.61A1.59,1.59,0,0,1,308,85Zm-1.75-6.27a1.7,1.7,0,0,0,1.4-2.28,2.42,2.42,0,0,0-2.5-1.71,1.77,1.77,0,0,0-1.56,2.21A2.44,2.44,0,0,0,306.2,78.71Zm-2.05-2.85a1.06,1.06,0,0,0,0,.61,1.88,1.88,0,0,0,2.05,1.37,1.36,1.36,0,0,0,1-.65,1.34,1.34,0,0,1-1.14,1.1,1.92,1.92,0,0,1-2-1.36A1.28,1.28,0,0,1,304.15,75.86ZM305.44,80a2.45,2.45,0,0,0-2.62-1.82,2.06,2.06,0,0,0-1.71,2.54,2.45,2.45,0,0,0,2.77,1.9A2.09,2.09,0,0,0,305.44,80Zm-1.71,2.13a1.91,1.91,0,0,1-2.16-1.48,1.68,1.68,0,0,1,.26-1.37,2.29,2.29,0,0,0,0,.87A1.91,1.91,0,0,0,304,81.67a1.47,1.47,0,0,0,1-.64A1.57,1.57,0,0,1,303.73,82.17Zm5.17-4.9a1.75,1.75,0,0,0-1.33,2.35,2.36,2.36,0,0,0,2.54,1.79,1.75,1.75,0,0,0,1.22-2.4A2.38,2.38,0,0,0,308.9,77.27ZM310,80.91A1.76,1.76,0,0,1,308,79.55a2,2,0,0,1,0-.91,1.84,1.84,0,0,0,2,1.7,1.11,1.11,0,0,0,1-.87A1.28,1.28,0,0,1,310,80.91Zm-10.21,5,.64,2.05c-.19,0-.42,0-.61,0l-.45-1.4a16,16,0,0,0-3.57.83l-.11-.53A12.65,12.65,0,0,1,299.75,86ZM289,81.37l-3.65,1.29L284.1,79a6.78,6.78,0,0,1,3.84,1.11,6.57,6.57,0,0,0-6.42-1.18,7.34,7.34,0,0,0-1.63.83c-.68.88-1.37,1.71-2.09,2.51a6.42,6.42,0,0,0-.26,5,6.54,6.54,0,0,0,12.6-1,6.48,6.48,0,0,1-2.32,3.15l-1.25-3.53,3.65-1.29Zm-6.83-1.9,1.36,3.83-.72.27-1.37-3.87ZM280.8,80l1.37,3.84-3.87,1.37A6,6,0,0,1,280.8,80Zm-1.37,8.47,3.88-1.37,1.36,3.84A6.16,6.16,0,0,1,279.43,88.43Zm7.67,1.06.08.27a5.46,5.46,0,0,1-1.82.91l-1.6-4.52-4.67,1.63a5.57,5.57,0,0,1-.68-1.89l.68-.23a7.41,7.41,0,0,0,.57,1.48l4.67-1.67,1.6,4.52A4.8,4.8,0,0,0,287.1,89.49Zm-.72-4.29-.15-.41,2.92-1,.16.42Z" transform="translate(-266.98 -47.72)"/><path class="cls-4" d="M277.88,110.22c-2-.72-2.89-3.91-2.89-8,0-2,0-8.81,0-11.31,3.08,3.34,6.8,4.1,11.12,2.35a8.83,8.83,0,0,1-11-8.54,11.36,11.36,0,0,1,1.26-4.82c-2.4,2.92-2.21,3.64-2.47,7.25-.38,5.5-.46,11-.61,16.55-.11,3.11.65,7.59,4.18,8.5,4.17,1.11,7.63-3.26,8.73-6.83.61-1.9,1.14-3.83,1.67-5.73-3,9.53-6.95,11.69-10,10.55Z" transform="translate(-266.98 -47.72)"/><path class="cls-4" d="M317.51,91.7c1.45,4.55-3.15,4.36-5.5,2.16-.91-.87-3-2.43-4.29-3.53l2.62-1.67c-1.06.38-4,1.52-5,1.93a39.54,39.54,0,0,1,6.34,5.24c1.75,1.71,5.77,3.08,7.36.65,1.49-2.24-4.89-12.87-6.15-15.26a96.32,96.32,0,0,1,4.67,10.48Z" transform="translate(-266.98 -47.72)"/><path class="cls-4" d="M292.38,82.36l.68-5a22.35,22.35,0,0,1,6.57-2.4,42.22,42.22,0,0,0-8.35,1.86A24.73,24.73,0,0,1,292.38,82.36Z" transform="translate(-266.98 -47.72)"/><path class="cls-4" d="M304.45,83.23a3,3,0,0,1-4.13-2.17,2.93,2.93,0,0,1,.37-2.12,2.78,2.78,0,0,0-1,2.81,3,3,0,0,0,4.14,2.16,3.07,3.07,0,0,0,3.6,2.93,2.68,2.68,0,0,0,1.6-1.11,2.36,2.36,0,0,1-.95.42A3.09,3.09,0,0,1,304.45,83.23Z" transform="translate(-266.98 -47.72)"/><path class="cls-4" d="M280,77.34c3.65-1.89,7.75-1.21,10.41,2.93C287.44,73.09,283.5,74.69,280,77.34Z" transform="translate(-266.98 -47.72)"/><path class="cls-5" d="M267.66,92.53c1.68-1.59,3.35-3.19,5-4.78-.23,3.41-.34,7.82-.46,11.77l-3.6-2.4C267.06,96.1,266.37,93.78,267.66,92.53Zm47.88-8.88c1.59,3.19,3.15,6.37,4.63,9.64,1.6,3.49-1,5.92-4.33,5.77-4.36-.19-8.58-6.53-13.47-8.54,1.51-.69,3-1.29,4.63-1.9a51.66,51.66,0,0,0-14.81,4c.11-2,.27-4,.42-6-1.75,6.37-3.23,12.83-5.2,19.13-1.18,3.76-4.07,7.52-8.24,7.86a6,6,0,0,1-5.89-3.34c2.17,7.44,11.2,4.93,14.54-.34,1.79,1.21,3.42.6,4.86-.84a83.25,83.25,0,0,0,11.58-14.05c3.08.46,7,6.08,11.7,6.12,5,0,7.1-3.84,5-8.39l-5.43-9.15Z" transform="translate(-266.98 -47.72)"/><path class="cls-6" d="M291.17,99.44a57.36,57.36,0,0,1-2.7,8.73c1.29.88,1.82.8,3-.34a82.51,82.51,0,0,0,11.32-13.74l.15-.27c-7.37,9.61-12.08,11.2-11.73,5.62Z" transform="translate(-266.98 -47.72)"/><path class="cls-7" d="M297.58,67.4c-1.37.26-3.26.95-4.1,2.16A2,2,0,0,0,293.1,71c-.3,0-.68,0-.68.46l.23,3.72c-.84.23-1.64.45-2.43.72-2.59-4.21-8.09-2.85-11.24-.3a10.56,10.56,0,0,1,5.16-3.16c-1-.72-1.48-1.1-2.77-.6a16.29,16.29,0,0,0-5,2.73,2.43,2.43,0,0,0-1,1.63l-.19,3.27c-2.09,2.54-2.24,3.76-2.43,6.53-.34-2.93-1.1-4.18,1.18-7l.19-2.88a3.5,3.5,0,0,1,1.52-2.54A17,17,0,0,1,281,70.66c1.94-.72,2.77-.11,4.29,1a44.83,44.83,0,0,0,3-7.52,9.83,9.83,0,0,0,6.68.42C299.29,63.33,303.66,66.18,297.58,67.4ZM311.67,56a3.27,3.27,0,0,0-.5-1.1,12.69,12.69,0,0,1-1.36,6.22,3.65,3.65,0,1,1-4.33-2.35,3.58,3.58,0,0,1,2.2.15,7.05,7.05,0,0,1-1.82,2.77.81.81,0,0,0,1,1.26A10,10,0,0,0,310,56.31c.26-3.11-.87-8.28-4.71-8.58s-5.77,4.4-6.07,7.52l1.74-.61c.34-1.94,1.75-5.47,4.18-5.24,1.86.15,2.73,2.24,3.07,4.22a4.88,4.88,0,0,0-1.1.22l-13,4.56c-2.66.83-3.95,1.56-4.9,3.26a6,6,0,0,1-4-2c1.82,3.88,5.66,4.37,9.53,3.65,7.44-2,10.25,3.91,3.19,5.31a6.11,6.11,0,0,0-3.34,1.64.63.63,0,0,0-.16.6c.31,0,.73-.19.88.23l.15.46-2.09.42h2.24l.19.49-2.28.45h2.4l.15.46-2.39.46h2.58l.19.6a44.26,44.26,0,0,1,6.07-.6c-.57-.08-1.82-.35-2.39-.42.23-2.39,2.2-2.47,4.44-2.24-1.71-.46-3.45-.42-4.29.42,0-.84-.07-1.49,1-1.6a11,11,0,0,1,4.44.42c1.44.45,1.37.61,2.24,1.74,2.69,1.52,3.49,3.54,4.82,6.08.42-1.18.8-2.39,1.14-3.61.87-3,1.33-3.64.64-6.53l-2.84-12Z" transform="translate(-266.98 -47.72)"/><path class="cls-8" d="M291.36,61.74a12.73,12.73,0,0,0,2.92-.23,12.77,12.77,0,0,1,3.61-.45,34.41,34.41,0,0,1,9.18-5.36L294.62,60A7.51,7.51,0,0,0,291.36,61.74Z" transform="translate(-266.98 -47.72)"/></svg>