<svg id="Layer_1" data-name="Layer 1" xmlns="http://www.w3.org/2000/svg" viewBox="0 0 227.65 56.81"><defs><style>.cls-1,.cls-2{fill:#fff;}.cls-2{fill-rule:evenodd;}</style></defs><path class="cls-1" d="M358.06,84h4.36v24h-4.36Z" transform="translate(-313.24 -72.65)"/><path class="cls-1" d="M378.33,90.73h4.36v17.34h-4.36v-1.84a8.34,8.34,0,0,1-2.56,1.76,7.2,7.2,0,0,1-2.8.53,7.69,7.69,0,0,1-5.81-2.6,9.07,9.07,0,0,1-2.45-6.47,9.35,9.35,0,0,1,2.37-6.6,7.58,7.58,0,0,1,5.75-2.56,7.49,7.49,0,0,1,2.94.58,8.13,8.13,0,0,1,2.54,1.76v-1.9Zm-4.55,3.58a4.41,4.41,0,0,0-3.35,1.42,5.16,5.16,0,0,0-1.34,3.66,5.08,5.08,0,0,0,1.37,3.69,4.69,4.69,0,0,0,6.76,0,5.26,5.26,0,0,0,1.34-3.74,5.06,5.06,0,0,0-1.34-3.66,4.68,4.68,0,0,0-3.44-1.39Z" transform="translate(-313.24 -72.65)"/><path class="cls-1" d="M385.54,90.73h13.29L391,104.39h7.35v3.68h-14l7.82-13.65h-6.65Z" transform="translate(-313.24 -72.65)"/><path class="cls-1" d="M398.55,90.73H403l4.5,10.89,5-10.89h4.47l-10.87,23.68H401.6l3.57-7.65-6.62-16Z" transform="translate(-313.24 -72.65)"/><path class="cls-1" d="M429.22,93.16l-2.69,2.68a4.49,4.49,0,0,0-3-1.62,1.9,1.9,0,0,0-1.15.31.94.94,0,0,0-.42.78,1,1,0,0,0,.25.64,4.54,4.54,0,0,0,1.32.81l1.59.81a9.62,9.62,0,0,1,3.46,2.55,5.24,5.24,0,0,1-.75,6.87,6.55,6.55,0,0,1-4.56,1.53,7.18,7.18,0,0,1-6.05-3l2.68-2.9a6.37,6.37,0,0,0,1.78,1.45,4.12,4.12,0,0,0,1.82.56,2.17,2.17,0,0,0,1.39-.42,1.16,1.16,0,0,0,.54-1c0-.67-.65-1.31-1.9-2l-1.48-.72c-2.8-1.43-4.22-3.19-4.22-5.31a4.62,4.62,0,0,1,1.59-3.52,5.75,5.75,0,0,1,4.05-1.45,6.9,6.9,0,0,1,3.18.76,6,6,0,0,1,2.55,2.06Z" transform="translate(-313.24 -72.65)"/><path class="cls-1" d="M432.18,84h4.32v8.46a10.22,10.22,0,0,1,2.57-1.65,6.78,6.78,0,0,1,2.63-.55,5.81,5.81,0,0,1,4.35,1.78,6.25,6.25,0,0,1,1.51,4.55v11.45h-4.3v-7.59A18.25,18.25,0,0,0,443,96.4a2.91,2.91,0,0,0-1-1.59,2.74,2.74,0,0,0-1.71-.53,3.16,3.16,0,0,0-2.26.86,4.59,4.59,0,0,0-1.31,2.41,18.35,18.35,0,0,0-.2,3.57v6.95H432.2V84Z" transform="translate(-313.24 -72.65)"/><path class="cls-1" d="M459.07,90.29a9.19,9.19,0,0,1,4.61,1.22,8.77,8.77,0,0,1,3.37,3.33,8.86,8.86,0,0,1,1.21,4.55A9.06,9.06,0,0,1,467,104a8.92,8.92,0,0,1-3.33,3.35,9.08,9.08,0,0,1-4.63,1.2,9,9,0,0,1-9-9.1,9.06,9.06,0,0,1,9-9.13Zm.08,4.1a4.49,4.49,0,0,0-3.38,1.43,5.59,5.59,0,0,0,0,7.26,4.8,4.8,0,0,0,6.79,0,5.13,5.13,0,0,0,1.37-3.66,5,5,0,0,0-1.34-3.63,4.8,4.8,0,0,0-3.44-1.37Z" transform="translate(-313.24 -72.65)"/><path class="cls-1" d="M475.32,90.73v1.93a8.37,8.37,0,0,1,2.54-1.76,7.45,7.45,0,0,1,2.93-.59,7.63,7.63,0,0,1,5.78,2.57A9.25,9.25,0,0,1,489,99.47a9,9,0,0,1-2.46,6.48,7.76,7.76,0,0,1-5.81,2.6,7.18,7.18,0,0,1-2.79-.53,8.75,8.75,0,0,1-2.57-1.76v8.18H471V90.73Zm4.58,3.58a4.58,4.58,0,0,0-3.41,1.39,5.08,5.08,0,0,0-1.37,3.66,5.15,5.15,0,0,0,1.37,3.74,4.51,4.51,0,0,0,3.41,1.43,4.36,4.36,0,0,0,3.35-1.45,5.31,5.31,0,0,0,1.37-3.69,5.16,5.16,0,0,0-1.34-3.66,4.42,4.42,0,0,0-3.38-1.42Z" transform="translate(-313.24 -72.65)"/><path class="cls-1" d="M496.07,90.73v1.93a8.37,8.37,0,0,1,2.54-1.76,7.45,7.45,0,0,1,2.93-.59,7.65,7.65,0,0,1,5.78,2.57,9.25,9.25,0,0,1,2.38,6.59,9,9,0,0,1-2.46,6.48,7.76,7.76,0,0,1-5.81,2.6,7.15,7.15,0,0,1-2.79-.53,8.62,8.62,0,0,1-2.57-1.76v8.18h-4.33V90.73Zm4.58,3.58a4.58,4.58,0,0,0-3.41,1.39,5.08,5.08,0,0,0-1.37,3.66,5.15,5.15,0,0,0,1.37,3.74,4.51,4.51,0,0,0,3.41,1.43,4.36,4.36,0,0,0,3.35-1.45,5.31,5.31,0,0,0,1.37-3.69A5.16,5.16,0,0,0,504,95.73a4.43,4.43,0,0,0-3.38-1.42Z" transform="translate(-313.24 -72.65)"/><path class="cls-1" d="M529.86,100.67h-14a4.64,4.64,0,0,0,1.62,2.94,5.05,5.05,0,0,0,3.35,1.09A5.76,5.76,0,0,0,525,103l3.66,1.73a8.67,8.67,0,0,1-3.3,2.88,10.46,10.46,0,0,1-4.55.92,9,9,0,0,1-6.65-2.57,8.76,8.76,0,0,1-2.57-6.45,9.1,9.1,0,0,1,2.57-6.59,8.59,8.59,0,0,1,6.43-2.62,8.91,8.91,0,0,1,6.67,2.62,9.53,9.53,0,0,1,2.57,6.93v.83Zm-4.36-3.43a4.24,4.24,0,0,0-1.7-2.35,4.87,4.87,0,0,0-2.93-.92,5.09,5.09,0,0,0-3.19,1,5.45,5.45,0,0,0-1.59,2.23Z" transform="translate(-313.24 -72.65)"/><path class="cls-1" d="M531.56,90.73h3.74v2.18a4.58,4.58,0,0,1,1.62-2,3.86,3.86,0,0,1,2.21-.67,4,4,0,0,1,1.76.44l-1.37,3.74a3,3,0,0,0-1.26-.39c-.67,0-1.22.42-1.7,1.26s-.7,2.46-.7,4.89l0,.84v7h-4.33Z" transform="translate(-313.24 -72.65)"/><path class="cls-1" d="M381.85,124.86H377.3a1.51,1.51,0,0,0,.53,1,1.72,1.72,0,0,0,1.09.36,2,2,0,0,0,1.37-.56l1.2.56a2.71,2.71,0,0,1-1.06.92,3.34,3.34,0,0,1-1.48.31,2.89,2.89,0,0,1-2.15-.84,2.84,2.84,0,0,1-.84-2.09,3,3,0,0,1,.84-2.15,3.05,3.05,0,0,1,4.27,0,3,3,0,0,1,.84,2.26l-.06.28Zm-1.42-1.12a1.3,1.3,0,0,0-.56-.75,1.59,1.59,0,0,0-.95-.31,1.65,1.65,0,0,0-1,.33,1.89,1.89,0,0,0-.53.73Z" transform="translate(-313.24 -72.65)"/><path class="cls-1" d="M382.38,121.62h1.46l1.42,3.32,1.42-3.32h1.43l-2.4,5.64h-.92l-2.41-5.64Z" transform="translate(-313.24 -72.65)"/><path class="cls-1" d="M394.59,124.86H390a1.47,1.47,0,0,0,.53,1,1.72,1.72,0,0,0,1.09.36,1.94,1.94,0,0,0,1.36-.56l1.2.56a2.65,2.65,0,0,1-1.06.92,3.34,3.34,0,0,1-1.48.31,2.89,2.89,0,0,1-2.15-.84,2.84,2.84,0,0,1-.84-2.09,3,3,0,0,1,.84-2.15,3.07,3.07,0,0,1,4.28,0,3.08,3.08,0,0,1,.83,2.26l-.05.28Zm-1.43-1.12a1.3,1.3,0,0,0-.56-.75,1.54,1.54,0,0,0-.94-.31,1.66,1.66,0,0,0-1,.33,2.12,2.12,0,0,0-.53.73Z" transform="translate(-313.24 -72.65)"/><path class="cls-1" d="M395.4,121.62h1.2v.7a1.58,1.58,0,0,1,.53-.65,1.3,1.3,0,0,1,.72-.22,1.68,1.68,0,0,1,.59.14l-.45,1.23a.93.93,0,0,0-.41-.11.67.67,0,0,0-.56.39,3.38,3.38,0,0,0-.23,1.59v2.57H395.4v-5.64Z" transform="translate(-313.24 -72.65)"/><path class="cls-1" d="M398.5,121.62H400l1.45,3.54,1.62-3.54h1.45L401,129.33H399.5l1.18-2.49-2.18-5.22Z" transform="translate(-313.24 -72.65)"/><path class="cls-1" d="M409.44,119.44h1.43v7.82h-1.43v-.59a2.89,2.89,0,0,1-.83.56,2.48,2.48,0,0,1-.9.17,2.55,2.55,0,0,1-1.9-.84,3.21,3.21,0,0,1,0-4.24,2.43,2.43,0,0,1,1.87-.84,2.24,2.24,0,0,1,.95.19,2.47,2.47,0,0,1,.81.59v-2.82ZM408,122.79a1.42,1.42,0,0,0-1.09.48,1.73,1.73,0,0,0-.44,1.2,1.68,1.68,0,0,0,.44,1.2,1.53,1.53,0,0,0,1.09.47,1.55,1.55,0,0,0,1.12-.47,1.8,1.8,0,0,0,.45-1.23,1.6,1.6,0,0,0-.45-1.2A1.49,1.49,0,0,0,408,122.79Z" transform="translate(-313.24 -72.65)"/><path class="cls-1" d="M416.45,121.62h1.43v5.64h-1.43v-.59a3,3,0,0,1-.83.56,2.48,2.48,0,0,1-.9.17,2.55,2.55,0,0,1-1.9-.84,2.94,2.94,0,0,1-.81-2.09,3,3,0,0,1,.78-2.15,2.46,2.46,0,0,1,1.88-.84,2.24,2.24,0,0,1,.95.19,2.47,2.47,0,0,1,.81.59v-.64ZM415,122.79a1.42,1.42,0,0,0-1.09.48,1.86,1.86,0,0,0,0,2.4,1.53,1.53,0,0,0,1.09.47,1.55,1.55,0,0,0,1.12-.47,1.8,1.8,0,0,0,.45-1.23,1.6,1.6,0,0,0-.45-1.2A1.49,1.49,0,0,0,415,122.79Z" transform="translate(-313.24 -72.65)"/><path class="cls-1" d="M418.66,121.62h1.45l1.45,3.54,1.62-3.54h1.46l-3.52,7.71h-1.46l1.18-2.49-2.18-5.22Z" transform="translate(-313.24 -72.65)"/><path class="cls-1" d="M429.19,125.78a.87.87,0,0,1,.58.22.76.76,0,0,1,.26.56.82.82,0,0,1-.26.59.77.77,0,0,1-.58.25.79.79,0,0,1-.59-.25.81.81,0,0,1-.25-.59.7.7,0,0,1,.25-.56A.9.9,0,0,1,429.19,125.78Z" transform="translate(-313.24 -72.65)"/><path class="cls-1" d="M439.88,122.76l-1.17.65a1.87,1.87,0,0,0-.67-.48,2.22,2.22,0,0,0-.75-.14,1.83,1.83,0,0,0-1.29.48,1.58,1.58,0,0,0-.5,1.2,1.63,1.63,0,0,0,.47,1.17,1.67,1.67,0,0,0,1.23.45,1.84,1.84,0,0,0,1.48-.65l1.12.76a3.44,3.44,0,0,1-4.89.28,2.93,2.93,0,0,1-.84-2.07,2.79,2.79,0,0,1,.42-1.51,3.18,3.18,0,0,1,1.15-1.09,3.59,3.59,0,0,1,1.65-.39,3.22,3.22,0,0,1,1.5.34,3.38,3.38,0,0,1,1.09,1Z" transform="translate(-313.24 -72.65)"/><path class="cls-1" d="M443.79,121.48a3.2,3.2,0,0,1,1.51.39,2.66,2.66,0,0,1,1.09,1.09,3,3,0,0,1,0,3A2.55,2.55,0,0,1,445.3,127a3.06,3.06,0,0,1-1.51.39,2.71,2.71,0,0,1-2.06-.87,2.94,2.94,0,0,1-.87-2.09,2.94,2.94,0,0,1,2.93-3Zm0,1.34a1.38,1.38,0,0,0-1.09.45,1.67,1.67,0,0,0-.45,1.17,1.6,1.6,0,0,0,.45,1.2,1.38,1.38,0,0,0,1.09.45,1.42,1.42,0,0,0,1.12-.48,1.61,1.61,0,0,0,.44-1.17,1.58,1.58,0,0,0-.44-1.17,1.49,1.49,0,0,0-1.12-.45Z" transform="translate(-313.24 -72.65)"/><path class="cls-1" d="M448,121.62h1.43v2.71a3.4,3.4,0,0,0,.11,1.09,1,1,0,0,0,.36.47,1.07,1.07,0,0,0,.59.17,1,1,0,0,0,.59-.17,1.06,1.06,0,0,0,.36-.5,4.29,4.29,0,0,0,.08-1v-2.77h1.43V124a6.23,6.23,0,0,1-.23,2,2.11,2.11,0,0,1-.84,1,2.65,2.65,0,0,1-1.39.36,2.52,2.52,0,0,1-1.51-.42,2.31,2.31,0,0,1-.81-1.14,7.07,7.07,0,0,1-.17-1.87Z" transform="translate(-313.24 -72.65)"/><path class="cls-1" d="M459.82,122.76l-1.17.65a1.87,1.87,0,0,0-.67-.48,2.24,2.24,0,0,0-.76-.14,1.81,1.81,0,0,0-1.28.48,1.54,1.54,0,0,0-.5,1.2,1.59,1.59,0,0,0,.47,1.17,1.67,1.67,0,0,0,1.23.45,1.84,1.84,0,0,0,1.48-.65l1.12.76a3.44,3.44,0,0,1-4.89.28,2.93,2.93,0,0,1-.84-2.07,2.79,2.79,0,0,1,.42-1.51,3.1,3.1,0,0,1,1.15-1.09,3.57,3.57,0,0,1,1.64-.39,3.23,3.23,0,0,1,1.51.34,3.38,3.38,0,0,1,1.09,1Z" transform="translate(-313.24 -72.65)"/><path class="cls-1" d="M461.11,119.44h1.39v2.74a2.79,2.79,0,0,1,.84-.53,2.1,2.1,0,0,1,.84-.17,1.89,1.89,0,0,1,1.42.59,2,2,0,0,1,.5,1.48v3.71h-1.39v-2.49a6.69,6.69,0,0,0-.09-1.34,1.07,1.07,0,0,0-.3-.53.91.91,0,0,0-.56-.16,1,1,0,0,0-.73.27,1.75,1.75,0,0,0-.42.79,10.71,10.71,0,0,0-.05,1.17v2.26h-1.4v-7.79Z" transform="translate(-313.24 -72.65)"/><path class="cls-1" d="M471.22,125.78a.89.89,0,0,1,.58.22.75.75,0,0,1,.25.56.81.81,0,0,1-.25.59.81.81,0,0,1-1.17,0,.81.81,0,0,1-.25-.59.7.7,0,0,1,.25-.56A.9.9,0,0,1,471.22,125.78Z" transform="translate(-313.24 -72.65)"/><path class="cls-1" d="M479.84,122.43l-.86.86a1.44,1.44,0,0,0-1-.53.44.44,0,0,0-.36.12.26.26,0,0,0-.14.25.4.4,0,0,0,.08.22,1.93,1.93,0,0,0,.42.25l.53.25a2.71,2.71,0,0,1,1.12.84,1.73,1.73,0,0,1,.31,1,1.65,1.65,0,0,1-.56,1.25,2.11,2.11,0,0,1-1.48.51,2.45,2.45,0,0,1-2-1l.87-1a1.78,1.78,0,0,0,.59.47,1.24,1.24,0,0,0,.58.17.67.67,0,0,0,.45-.14.38.38,0,0,0,.17-.3c0-.23-.2-.42-.62-.65l-.47-.25c-.92-.44-1.37-1-1.37-1.73a1.49,1.49,0,0,1,.5-1.14,1.89,1.89,0,0,1,1.32-.48,2.24,2.24,0,0,1,1,.25,2.46,2.46,0,0,1,.86.73Z" transform="translate(-313.24 -72.65)"/><path class="cls-1" d="M481.05,119.44h1.39v2.74a2.79,2.79,0,0,1,.84-.53,2.1,2.1,0,0,1,.84-.17,1.89,1.89,0,0,1,1.42.59,2,2,0,0,1,.5,1.48v3.71h-1.39v-2.49a6.69,6.69,0,0,0-.09-1.34,1.07,1.07,0,0,0-.3-.53.91.91,0,0,0-.56-.16,1,1,0,0,0-.73.27,1.75,1.75,0,0,0-.42.79,10.71,10.71,0,0,0-.05,1.17v2.26h-1.4v-7.79Z" transform="translate(-313.24 -72.65)"/><path class="cls-1" d="M490.07,121.48a3.16,3.16,0,0,1,1.5.39,2.66,2.66,0,0,1,1.09,1.09,3,3,0,0,1,0,3,2.55,2.55,0,0,1-1.09,1.09,3,3,0,0,1-1.5.39,2.74,2.74,0,0,1-2.07-.87,2.94,2.94,0,0,1-.87-2.09,2.94,2.94,0,0,1,2.94-3Zm0,1.34a1.4,1.4,0,0,0-1.09.45,1.66,1.66,0,0,0-.44,1.17,1.63,1.63,0,0,0,.44,1.2,1.4,1.4,0,0,0,1.09.45,1.42,1.42,0,0,0,1.12-.48,1.57,1.57,0,0,0,.45-1.17,1.54,1.54,0,0,0-.45-1.17,1.49,1.49,0,0,0-1.12-.45Z" transform="translate(-313.24 -72.65)"/><path class="cls-1" d="M495.62,121.62v.61a2.81,2.81,0,0,1,.84-.58,2.22,2.22,0,0,1,1-.2,2.43,2.43,0,0,1,1.87.84,3.1,3.1,0,0,1,.78,2.15,2.92,2.92,0,0,1-.81,2.09,2.54,2.54,0,0,1-1.9.84,2.17,2.17,0,0,1-.89-.17,2.74,2.74,0,0,1-.84-.56v2.66h-1.39v-7.71h1.39Zm1.48,1.17a1.47,1.47,0,0,0-1.11.45,1.6,1.6,0,0,0-.45,1.2,1.72,1.72,0,0,0,.45,1.23,1.52,1.52,0,0,0,2.2,0,1.64,1.64,0,0,0,.45-1.2,1.61,1.61,0,0,0-.45-1.2A1.32,1.32,0,0,0,497.1,122.79Z" transform="translate(-313.24 -72.65)"/><path class="cls-1" d="M502.63,121.62v.61a2.81,2.81,0,0,1,.84-.58,2.22,2.22,0,0,1,.95-.2,2.43,2.43,0,0,1,1.87.84,3.1,3.1,0,0,1,.78,2.15,2.92,2.92,0,0,1-.81,2.09,2.54,2.54,0,0,1-1.9.84,2.17,2.17,0,0,1-.89-.17,2.74,2.74,0,0,1-.84-.56v2.66h-1.39v-7.71h1.39Zm1.48,1.17a1.51,1.51,0,0,0-1.12.45,1.63,1.63,0,0,0-.44,1.2,1.75,1.75,0,0,0,.44,1.23,1.57,1.57,0,0,0,1.12.47,1.53,1.53,0,0,0,1.09-.47,1.64,1.64,0,0,0,.45-1.2,1.61,1.61,0,0,0-.45-1.2A1.32,1.32,0,0,0,504.11,122.79Z" transform="translate(-313.24 -72.65)"/><path class="cls-1" d="M508.78,119.3a.84.84,0,0,1,.64.28.91.91,0,0,1,0,1.28.92.92,0,0,1-.65.28.8.8,0,0,1-.64-.28.9.9,0,0,1-.28-.67.92.92,0,0,1,.25-.64.88.88,0,0,1,.65-.25Zm-.7,2.32h1.42v5.64h-1.42Z" transform="translate(-313.24 -72.65)"/><path class="cls-1" d="M510.76,121.62h1.42v.58a3.41,3.41,0,0,1,.87-.55,1.87,1.87,0,0,1,.81-.17,1.89,1.89,0,0,1,1.42.59,2,2,0,0,1,.5,1.48v3.71h-1.39V124.8a6.29,6.29,0,0,0-.09-1.34.87.87,0,0,0-.3-.5.91.91,0,0,0-.56-.17,1,1,0,0,0-.73.28,1.77,1.77,0,0,0-.42.78,10.7,10.7,0,0,0,0,1.15v2.26h-1.43v-5.64Z" transform="translate(-313.24 -72.65)"/><path class="cls-1" d="M521.31,121.62h1.4v4.83a3.1,3.1,0,0,1-.59,2.09,2.8,2.8,0,0,1-2.31.93,4.1,4.1,0,0,1-1.4-.2,2.55,2.55,0,0,1-.95-.61,2.92,2.92,0,0,1-.59-1h1.57a1.12,1.12,0,0,0,.53.36,2,2,0,0,0,.78.11,2.11,2.11,0,0,0,.92-.16,1.3,1.3,0,0,0,.5-.45,2.46,2.46,0,0,0,.14-1,2.26,2.26,0,0,1-.78.53,2.47,2.47,0,0,1-.92.17,2.65,2.65,0,0,1-1.93-.81,3.15,3.15,0,0,1,.06-4.22,2.41,2.41,0,0,1,1.79-.72,2.51,2.51,0,0,1,.92.16,2.76,2.76,0,0,1,.86.59v-.64Zm-1.48,1.17a1.47,1.47,0,0,0-1.11.45,1.61,1.61,0,0,0-.45,1.12,1.54,1.54,0,0,0,1.56,1.59,1.38,1.38,0,0,0,1.09-.45,1.57,1.57,0,0,0-1.09-2.71Z" transform="translate(-313.24 -72.65)"/><path class="cls-2" d="M342.56,97.1A1.51,1.51,0,0,0,341.42,99a1.77,1.77,0,0,0,2,1.36,1.55,1.55,0,0,0,1.06-2A1.78,1.78,0,0,0,342.56,97.1Zm.81,3A1.44,1.44,0,0,1,341.72,99a1.37,1.37,0,0,1,.17-1.09,1.52,1.52,0,0,0,0,.67,1.44,1.44,0,0,0,1.65,1.09,1,1,0,0,0,.67-.45A1.15,1.15,0,0,1,343.37,100.06Zm-1.28-4.61a1.25,1.25,0,0,0,1-1.67,1.77,1.77,0,0,0-1.84-1.26,1.29,1.29,0,0,0-1.15,1.62A1.79,1.79,0,0,0,342.09,95.45Zm-1.51-2.09a.74.74,0,0,0,0,.44,1.36,1.36,0,0,0,1.5,1,1,1,0,0,0,.73-.48,1,1,0,0,1-.84.81,1.4,1.4,0,0,1-1.5-1A.92.92,0,0,1,340.58,93.36Zm.95,3.07a1.81,1.81,0,0,0-1.93-1.34A1.52,1.52,0,0,0,338.34,97a1.82,1.82,0,0,0,2,1.4A1.54,1.54,0,0,0,341.53,96.43ZM340.27,98a1.4,1.4,0,0,1-1.59-1.09,1.22,1.22,0,0,1,.2-1,1.51,1.51,0,0,0,0,.64,1.41,1.41,0,0,0,1.59,1.09,1.11,1.11,0,0,0,.73-.47A1.16,1.16,0,0,1,340.27,98Zm3.8-3.6a1.29,1.29,0,0,0-1,1.73A1.73,1.73,0,0,0,345,97.43a1.27,1.27,0,0,0,.9-1.75A1.75,1.75,0,0,0,344.07,94.39Zm.78,2.68a1.29,1.29,0,0,1-1.42-1,1.26,1.26,0,0,1,0-.67,1.35,1.35,0,0,0,1.48,1.25.83.83,0,0,0,.7-.64A1,1,0,0,1,344.85,97.07Zm-7.51,3.72.47,1.5-.44,0-.34-1a12.32,12.32,0,0,0-2.62.61l-.09-.39A9.17,9.17,0,0,1,337.34,100.79Zm-7.88-3.38-2.68,1-.95-2.68a4.89,4.89,0,0,1,2.82.81,4.79,4.79,0,0,0-4.71-.87,5.71,5.71,0,0,0-1.21.61c-.5.65-1,1.26-1.53,1.85a4.77,4.77,0,0,0-.2,3.66,4.84,4.84,0,0,0,6.15,2.93,4.78,4.78,0,0,0,3.12-3.66,4.76,4.76,0,0,1-1.7,2.32l-.92-2.6,2.68-1Zm-5-1.4,1,2.82-.53.2-1-2.85Zm-1,.36,1,2.82-2.85,1A4.5,4.5,0,0,1,323.4,96.37Zm-1,6.23,2.85-1,1,2.82A4.53,4.53,0,0,1,322.4,102.6Zm5.64.78.06.2a4,4,0,0,1-1.34.67l-1.18-3.32-3.43,1.2a4.2,4.2,0,0,1-.5-1.4l.5-.17a4.64,4.64,0,0,0,.42,1.09l3.43-1.23,1.17,3.33A3.51,3.51,0,0,0,328,103.38Zm-.53-3.15-.11-.31,2.15-.75.11.3Z" transform="translate(-313.24 -72.65)"/><path class="cls-2" d="M321.25,118.63c-1.45-.53-2.12-2.88-2.12-5.86,0-1.51,0-6.48,0-8.33a6.78,6.78,0,0,0,8.18,1.74,6.5,6.5,0,0,1-8.1-6.29,8.22,8.22,0,0,1,.93-3.54c-1.76,2.15-1.62,2.68-1.82,5.33-.28,4-.33,8.13-.45,12.18-.08,2.28.48,5.58,3.08,6.25,3.07.81,5.61-2.4,6.42-5,.44-1.39.84-2.82,1.23-4.21-2.24,7-5.11,8.6-7.38,7.76Z" transform="translate(-313.24 -72.65)"/><path class="cls-2" d="M350.41,105c1.06,3.35-2.32,3.21-4.05,1.59-.67-.64-2.18-1.78-3.16-2.59l1.93-1.23c-.78.28-2.93,1.12-3.71,1.42a28.72,28.72,0,0,1,4.66,3.86c1.28,1.25,4.25,2.26,5.42.47S347.9,99.05,347,97.3a70.69,70.69,0,0,1,3.44,7.7Z" transform="translate(-313.24 -72.65)"/><path class="cls-2" d="M331.92,98.13l.5-3.71a16.41,16.41,0,0,1,4.84-1.76A30.58,30.58,0,0,0,331.11,94,17.53,17.53,0,0,1,331.92,98.13Z" transform="translate(-313.24 -72.65)"/><path class="cls-2" d="M340.8,98.78a2.24,2.24,0,0,1-3-1.6,2.15,2.15,0,0,1,.28-1.56,2.05,2.05,0,0,0-.76,2.07,2.23,2.23,0,0,0,3.05,1.59,2.25,2.25,0,0,0,2.65,2.15,2,2,0,0,0,1.17-.81,1.82,1.82,0,0,1-.69.31A2.28,2.28,0,0,1,340.8,98.78Z" transform="translate(-313.24 -72.65)"/><path class="cls-2" d="M322.82,94.45a5.53,5.53,0,0,1,7.65,2.15C328.29,91.32,325.39,92.49,322.82,94.45Z" transform="translate(-313.24 -72.65)"/><path class="cls-2" d="M313.74,105.62c1.23-1.18,2.46-2.35,3.66-3.52-.17,2.51-.25,5.75-.33,8.66L314.41,109C313.3,108.24,312.79,106.54,313.74,105.62ZM349,99.08c1.17,2.35,2.31,4.69,3.4,7.1s-.75,4.35-3.18,4.24c-3.21-.14-6.31-4.8-9.91-6.28,1.11-.51,2.23-1,3.4-1.4a38,38,0,0,0-10.89,3c.09-1.48.2-2.93.31-4.41-1.28,4.69-2.37,9.44-3.83,14.07-.86,2.77-3,5.53-6.06,5.78a4.38,4.38,0,0,1-4.32-2.45c1.59,5.47,8.23,3.63,10.69-.26,1.31.9,2.51.45,3.58-.61a62.11,62.11,0,0,0,8.51-10.33c2.26.33,5.14,4.47,8.6,4.49,3.69,0,5.23-2.82,3.69-6.17l-4-6.73Z" transform="translate(-313.24 -72.65)"/><path class="cls-2" d="M331,110.7a42.26,42.26,0,0,1-2,6.42c.95.64,1.34.59,2.17-.25a60.39,60.39,0,0,0,8.33-10.11l.11-.19c-5.42,7.06-8.88,8.23-8.63,4.13Z" transform="translate(-313.24 -72.65)"/><path class="cls-2" d="M335.75,87.13a5,5,0,0,0-3,1.59,1.48,1.48,0,0,0-.28,1.09c-.22,0-.5,0-.5.34l.17,2.73c-.62.17-1.2.34-1.79.53-1.9-3.1-5.95-2.09-8.27-.22a7.81,7.81,0,0,1,3.8-2.32c-.72-.53-1.09-.81-2-.44a12,12,0,0,0-3.65,2,1.72,1.72,0,0,0-.76,1.2l-.14,2.4a6.67,6.67,0,0,0-1.79,4.8c-.25-2.15-.81-3.07.87-5.16l.14-2.13a2.6,2.6,0,0,1,1.12-1.87,12.67,12.67,0,0,1,3.93-2.15c1.43-.53,2-.08,3.16.73a33.05,33.05,0,0,0,2.21-5.53,7.32,7.32,0,0,0,4.91.31C337,84.14,340.22,86.24,335.75,87.13Zm10.36-8.38a2.85,2.85,0,0,0-.36-.81,9.33,9.33,0,0,1-1,4.58,2.69,2.69,0,1,1-1.56-1.62,5.3,5.3,0,0,1-1.34,2,.59.59,0,1,0,.75.92A7.26,7.26,0,0,0,344.85,79c.2-2.29-.64-6.09-3.46-6.32s-4.25,3.24-4.47,5.53l1.29-.44c.25-1.43,1.28-4,3.07-3.86,1.37.12,2,1.65,2.26,3.1a4.15,4.15,0,0,0-.81.17l-9.58,3.35c-1.95.62-2.9,1.15-3.6,2.4a4.39,4.39,0,0,1-3-1.5c1.34,2.84,4.16,3.21,7,2.68,5.47-1.46,7.54,2.87,2.34,3.91a4.47,4.47,0,0,0-2.45,1.2.46.46,0,0,0-.12.44c.23,0,.53-.14.65.17l.11.34-1.54.3h1.65l.14.37-1.68.33h1.76l.12.34-1.76.33h1.89l.14.45a34.35,34.35,0,0,1,4.47-.45c-.42,0-1.34-.25-1.76-.31.17-1.75,1.62-1.81,3.27-1.64-1.26-.34-2.54-.31-3.16.3,0-.61-.05-1.09.76-1.17a8.11,8.11,0,0,1,3.27.31c1.06.33,1,.45,1.64,1.28,2,1.12,2.57,2.6,3.55,4.47.31-.86.59-1.76.84-2.65.64-2.21,1-2.68.47-4.81l-2.09-8.85Z" transform="translate(-313.24 -72.65)"/><path class="cls-2" d="M331.17,83a9.31,9.31,0,0,0,2.15-.17,9.4,9.4,0,0,1,2.65-.33,25.21,25.21,0,0,1,6.76-3.94l-9.16,3.18A5.54,5.54,0,0,0,331.17,83Z" transform="translate(-313.24 -72.65)"/></svg>