<svg id="Layer_1" data-name="Layer 1" xmlns="http://www.w3.org/2000/svg" viewBox="0 0 663.86 203.45"><defs><style>.cls-1{fill:#454545;}</style></defs><path class="cls-1" d="M166.55,64.55q-6.45-7.42-18.24-7.43H112.39l-2.68,13.6h35.91a10.67,10.67,0,0,1,8.85,3.93,11.42,11.42,0,0,1,2.07,9.66L156,86.64l-.18,1.61H122.55a33.3,33.3,0,0,0-21.38,7.69,32.36,32.36,0,0,0-11.89,19.5l-.35,1.43q-2.52,11.79,3.84,19.5t18.16,7.68h47L170.64,83.6Q173,72,166.55,64.55ZM147,130.44H113.79a11.25,11.25,0,0,1-9-3.93c-2.21-2.62-2.89-5.85-2.06-9.66l.29-1.41a15.82,15.82,0,0,1,6-9.66,16.72,16.72,0,0,1,10.64-3.94h33.09ZM247.32,57.1l-15.21,73.16H197.82a11.17,11.17,0,0,1-9-3.94c-2.21-2.61-2.89-5.84-2.06-9.65L199.11,57.1H185.29L173,116.67q-2.5,11.81,3.94,19.49t18.24,7.7h34.52l-1.07,5a17,17,0,0,1-6.17,9.57,16.29,16.29,0,0,1-10.47,4h-47L162,176.07h47a32.69,32.69,0,0,0,21.11-7.87,33.67,33.67,0,0,0,12.16-19.32l19-91.76Z" transform="translate(-0.02 0)"/><path class="cls-1" d="M104,65a32.25,32.25,0,0,1-11.91,19,32.61,32.61,0,0,1-20.89,7.76H24.34l-10.76,52.2H0L24.51,26.24H85q11.28,0,17.55,7.76t4,19ZM90.44,65l2.47-12A10.47,10.47,0,0,0,82.2,39.64H35.27l-8.11,38.8H74.07a16.08,16.08,0,0,0,10.4-3.88,16.57,16.57,0,0,0,6-9.52Z" transform="translate(-0.02 0)"/><path class="cls-1" d="M652.47,72.81a65,65,0,0,1-12.36,5.85,58.6,58.6,0,0,1-14.62,3.72q-3.19.54-6.52.89h-.07c-20.51,1.84-38-2.51-48.09-11.9a2,2,0,0,1-.26-.24v1.13A17.39,17.39,0,0,0,575,83.63c8.16,9.3,23.82,14.33,42,14.55,12.11,0,23.15-2.29,31.6-6.39A33.45,33.45,0,0,0,659.15,84a17.44,17.44,0,0,0,4.56-11.35,16.38,16.38,0,0,0-1.88-7.57A41.43,41.43,0,0,1,652.47,72.81ZM616.66,60.05c-19.17,1.54-35.7-2-46-10.12A17.87,17.87,0,0,0,575,60.25c8.16,9.31,23.83,14.32,42,14.55,12.12,0,23.16-2.29,31.59-6.4a32.72,32.72,0,0,0,10.56-7.75,17.5,17.5,0,0,0,4.54-11.35,16.63,16.63,0,0,0-2.81-9.19C658.28,43.64,647,57.62,616.66,60.05Zm.52-8.64c12.13,0,23.16-2.28,31.58-6.4a32.9,32.9,0,0,0,10.58-7.75,17.44,17.44,0,0,0,4.54-11.33,17.46,17.46,0,0,0-4.44-11.38C651.26,5.23,635.62.22,617.44,0c-12.12,0-23.16,2.28-31.58,6.38a33.42,33.42,0,0,0-10.58,7.75,17.57,17.57,0,0,0-4.56,11.31,17.57,17.57,0,0,0,4.45,11.4c8.15,9.33,23.85,14.34,42,14.6ZM581.65,16.26c4.4-5.41,18.11-10.71,34.16-10.5,10.74,0,20.38,2.28,26.9,5.58a22.13,22.13,0,0,1,7.18,5.24,7,7,0,0,1,2,4.57,7,7,0,0,1-2,4.56c-4.37,5.41-18.1,10.72-34.17,10.51-10.73,0-20.37-2.3-26.88-5.59a22.82,22.82,0,0,1-7.23-5.19,7.14,7.14,0,0,1-2-4.59A7,7,0,0,1,581.65,16.26Z" transform="translate(-0.02 0)"/><path class="cls-1" d="M391.77,144l-47.11.18q-11.82,0-18.2-7.64T322.53,117l.35-1.44A32.51,32.51,0,0,1,334.72,96a33.3,33.3,0,0,1,21.38-7.79l33.31-.13.17-1.61.53-2.33A11.46,11.46,0,0,0,388,74.44a10.71,10.71,0,0,0-8.88-3.91l-38.76.15L343,57l38.77-.15q11.82,0,18.29,7.38c4.33,4.94,5.71,11.3,4.2,19.07Zm-11-13.58,5.62-28.71-33.13.12a16.76,16.76,0,0,0-10.64,4,16,16,0,0,0-6,9.71l-.35,1.43q-1.23,5.75,2.1,9.68a11.2,11.2,0,0,0,9.06,3.9Z" transform="translate(-0.02 0)"/><path class="cls-1" d="M482,120.29a27.2,27.2,0,0,1-11.92,17.78,35.71,35.71,0,0,1-20.41,6l-46.56.18,2.81-13.62,46.57-.18q13.78,0,15.72-10.09l.71-3.22q2.1-10-11.68-10l-21,.08q-11.64,0-17.93-5.85-7.18-6.42-4.91-17.71l.71-3.23a27.17,27.17,0,0,1,11.93-17.77,35.73,35.73,0,0,1,20.4-6l46.79-.22-2.64,13.63-46.75.18q-13.78,0-15.9,10.08l-.7,3.23q-1.93,10,11.86,10l20.95-.08q11.64,0,17.94,5.84,7,6.42,4.72,17.72Z" transform="translate(-0.02 0)"/><path class="cls-1" d="M545,144.05l-21.85.08q-11.82,0-18.29-7.7t-4-19.65l9.49-47.13h-8.6l3-14.08h8.6l6.33-31.42,14,0-6.34,31.41,29-.11-3,14.09-29,.11-9.49,47.13q-1.23,5.77,2,9.74a10.86,10.86,0,0,0,9,3.93l21.85-.08Z" transform="translate(-0.02 0)"/><path class="cls-1" d="M367.46,38.35l-57.06.22a18,18,0,0,0-16.84,13.7l-5.23,26.06,35.61-.14L321.11,92l-35.43.14-10.81,52.21-13.85.08,18.69-92.09a34.8,34.8,0,0,1,33.51-27.42l57.06-.22Z" transform="translate(-0.02 0)"/><path class="cls-1" d="M269.47,187.09H256.68l-2.9,7.91h-2.49l10.65-28.16h2.27L274.86,195h-2.47Zm-12.05-2h11.29l-5.64-15.34Z" transform="translate(-0.02 0)"/><path class="cls-1" d="M288.11,195V166.84h8.32a13,13,0,0,1,6.63,1.66,11.33,11.33,0,0,1,4.48,4.72,15.15,15.15,0,0,1,1.58,7v1.41a15,15,0,0,1-1.59,7,11.24,11.24,0,0,1-4.55,4.69,13.74,13.74,0,0,1-6.76,1.64Zm4.9-24.22v20.31h3.19a7.35,7.35,0,0,0,5.91-2.41c1.37-1.6,2.07-3.91,2.1-6.91V180.2c0-3-.67-5.39-2-7a7.1,7.1,0,0,0-5.79-2.42Z" transform="translate(-0.02 0)"/><path class="cls-1" d="M318.89,184.55V195H314V166.84h10.77a11,11,0,0,1,7.5,2.45,8.27,8.27,0,0,1,2.77,6.51,8,8,0,0,1-2.72,6.45c-1.81,1.54-4.35,2.3-7.61,2.3Zm0-3.94h5.88a5.77,5.77,0,0,0,4-1.23,4.5,4.5,0,0,0,1.38-3.55,4.9,4.9,0,0,0-1.39-3.65,5.41,5.41,0,0,0-3.83-1.4h-6Z" transform="translate(-0.02 0)"/><path class="cls-1" d="M361.79,181.65a17.14,17.14,0,0,1-1.43,7.27,10.77,10.77,0,0,1-4.09,4.79,12,12,0,0,1-12.22,0,10.87,10.87,0,0,1-4.14-4.76,16.72,16.72,0,0,1-1.48-7.14v-1.59a17,17,0,0,1,1.46-7.27,11,11,0,0,1,4.12-4.83,12,12,0,0,1,12.2,0,10.74,10.74,0,0,1,4.11,4.76,17,17,0,0,1,1.47,7.23Zm-4.89-1.47q0-4.68-1.77-7.17a6.24,6.24,0,0,0-8.73-1.27,6.37,6.37,0,0,0-1.27,1.27,12.07,12.07,0,0,0-1.83,7v1.62q0,4.65,1.81,7.18a6.25,6.25,0,0,0,10,.06c1.17-1.65,1.75-4.07,1.75-7.24Z" transform="translate(-0.02 0)"/><path class="cls-1" d="M397.11,186.22a10.13,10.13,0,0,1-3.18,6.81,10.52,10.52,0,0,1-7.18,2.36,10,10,0,0,1-5.55-1.57,10.25,10.25,0,0,1-3.72-4.44,15.64,15.64,0,0,1-1.33-6.57v-3.65a16,16,0,0,1,1.31-6.66,10.15,10.15,0,0,1,3.78-4.47,10.28,10.28,0,0,1,5.68-1.59A9.4,9.4,0,0,1,397.08,175c0,.22,0,.43,0,.64h-2.39q-.9-7.19-7.8-7.18a7.39,7.39,0,0,0-6.1,2.87c-1.52,1.91-2.28,4.54-2.28,7.91v3.45a12.52,12.52,0,0,0,2.22,7.78,7.11,7.11,0,0,0,6,2.9,7.93,7.93,0,0,0,5.63-1.78,8.63,8.63,0,0,0,2.34-5.37Z" transform="translate(-0.02 0)"/><path class="cls-1" d="M401.08,184.23a12.31,12.31,0,0,1,1.17-5.44,8.81,8.81,0,0,1,8.15-5.11,8.61,8.61,0,0,1,6.77,2.93,11.32,11.32,0,0,1,2.6,7.77v.48a12.31,12.31,0,0,1-1.18,5.47,8.7,8.7,0,0,1-3.29,3.74,9,9,0,0,1-4.86,1.32,8.63,8.63,0,0,1-6.76-2.93,11.32,11.32,0,0,1-2.6-7.77Zm2.32.63a9.58,9.58,0,0,0,1.94,6.17,6.6,6.6,0,0,0,9.29.89,6.8,6.8,0,0,0,.89-.89,9.82,9.82,0,0,0,1.94-6.36v-.44a10.6,10.6,0,0,0-.89-4.4,7.14,7.14,0,0,0-2.49-3.08,6.43,6.43,0,0,0-3.68-1.09,6.22,6.22,0,0,0-5,2.42,9.83,9.83,0,0,0-2,6.36Z" transform="translate(-0.02 0)"/><path class="cls-1" d="M426.65,174.07l.08,3.4a7.75,7.75,0,0,1,2.9-2.84,8,8,0,0,1,3.87-.95q5,0,6.29,4.07a7.72,7.72,0,0,1,3-3,8.21,8.21,0,0,1,4.14-1.06q6.74,0,6.87,7.35v14h-2.32V181.21a6.2,6.2,0,0,0-1.21-4.16,4.93,4.93,0,0,0-3.88-1.35,6.12,6.12,0,0,0-4.21,1.61,5.7,5.7,0,0,0-1.92,3.84V195h-2.32V181a5.72,5.72,0,0,0-1.27-4,5,5,0,0,0-3.84-1.32,5.79,5.79,0,0,0-3.75,1.24,7.2,7.2,0,0,0-2.32,3.71V195h-2.32V174.07Z" transform="translate(-0.02 0)"/><path class="cls-1" d="M476.48,184.75a12.54,12.54,0,0,1-2.17,7.76,6.89,6.89,0,0,1-5.8,2.88,7.79,7.79,0,0,1-6.58-3v10.68h-2.3v-29h2.15l.12,3a7.42,7.42,0,0,1,6.55-3.35,7,7,0,0,1,5.89,2.85q2.15,2.84,2.14,7.89Zm-2.32-.41a10.67,10.67,0,0,0-1.65-6.32,5.28,5.28,0,0,0-4.58-2.32,6.48,6.48,0,0,0-3.66,1,6.59,6.59,0,0,0-2.34,3v10a6.23,6.23,0,0,0,2.38,2.75,6.82,6.82,0,0,0,3.71,1,5.22,5.22,0,0,0,4.55-2.33A12.2,12.2,0,0,0,474.16,184.34Z" transform="translate(-0.02 0)"/><path class="cls-1" d="M494.82,195a11.11,11.11,0,0,1-.45-2.92,8.08,8.08,0,0,1-3.1,2.45,9.69,9.69,0,0,1-4,.86,7,7,0,0,1-4.88-1.69,5.49,5.49,0,0,1-1.87-4.26,5.6,5.6,0,0,1,2.55-4.84,12.28,12.28,0,0,1,7.09-1.78h4.19v-2.38a4.58,4.58,0,0,0-1.38-3.53,5.73,5.73,0,0,0-4-1.28,6.39,6.39,0,0,0-4,1.23,3.7,3.7,0,0,0-1.58,3h-2.32a5.37,5.37,0,0,1,2.32-4.32,8.88,8.88,0,0,1,5.7-1.83,8.2,8.2,0,0,1,5.53,1.75,6.31,6.31,0,0,1,2.08,4.89v9.9a12.54,12.54,0,0,0,.63,4.55V195Zm-7.28-1.66a7.79,7.79,0,0,0,4.15-1.13,6.56,6.56,0,0,0,2.66-3V184.6h-4.14a10.3,10.3,0,0,0-5.41,1.27,3.88,3.88,0,0,0-.69,6.3,4.93,4.93,0,0,0,3.43,1.17Z" transform="translate(-0.02 0)"/><path class="cls-1" d="M505,174.07l.08,3.58a8.37,8.37,0,0,1,2.94-3,7.58,7.58,0,0,1,3.89-1,6.31,6.31,0,0,1,5,1.9c1.09,1.26,1.65,3.16,1.66,5.69V195h-2.3V181.25a6.43,6.43,0,0,0-1.19-4.18,4.62,4.62,0,0,0-3.74-1.37,5.79,5.79,0,0,0-3.8,1.34,7.74,7.74,0,0,0-2.45,3.63V195h-2.3V174.07Z" transform="translate(-0.02 0)"/><path class="cls-1" d="M531.22,191.67l6.11-17.6h2.5l-8.94,24.49-.46,1.08c-1.15,2.54-2.93,3.81-5.32,3.81a6.73,6.73,0,0,1-1.78-.27v-1.91l1.2.11a4.34,4.34,0,0,0,2.76-.84,6.29,6.29,0,0,0,1.79-2.89l1-2.82-7.89-20.76h2.53Z" transform="translate(-0.02 0)"/></svg>