<svg id="Layer_1" data-name="Layer 1" xmlns="http://www.w3.org/2000/svg" viewBox="0 0 250 180"><path d="M25,35A25,25,0,0,0,0,60V190a25,25,0,0,0,25,25H225a25,25,0,0,0,25-25V60a25,25,0,0,0-25-25ZM148.44,97a43.81,43.81,0,0,1,13.9,2.81L159.84,112s-5.39-3.59-10.15-3.59c-7.35,0-10,2.4-10,5.62,0,6.31,20.47,7.42,20.47,21.56,0,11.76-14.59,19.85-25.16,19.85s-16.09-3.13-16.09-3.13l2.65-11.87a29.7,29.7,0,0,0,14.06,3.28c8.52,0,9.69-3.63,9.69-5.16,0-9-20.31-6.5-20.31-24.06C125,104.82,132.93,97,148.44,97Zm-66.1,1.09H98.12l-22.5,55.63H59.38l-11.88-45S60,115.12,67.66,132.34c.33,2.09,1.25,5.47,1.25,5.47Zm21.57,0h15L110,153.75H95.16Zm80.15,0h15.47l11.41,55.63H197.5l-1.56-8H177.5l-3,8H159.84Zm-152.81.16H54.06c5.82,0,8,5.47,8,5.47l5,25.31C60.27,107.27,31.25,98.28,31.25,98.28Zm158.44,15.94-8.13,20.94h12.19Z" transform="translate(0 -35)"/></svg>